<svg version="1.1" width="3018" height="3018" xmlns="http://www.w3.org/2000/svg">
<rect x="0" y="0" width="3018" height="3018" fill="#6b707c" />
<g transform="scale(11.7891, 11.7891)">
<path d="M 255.5 84 L 0.5 84 L 0.5 -20 L 255.5 -20 Z" fill="#f2ffff" fill-opacity="0.501961" />
<path d="M 261.735 138.126 C 346.088 191.628, 346.088 278.372, 261.735 331.874 C 177.382 385.375, 40.6182 385.375, -43.7351 331.874 C -128.088 278.372, -128.088 191.628, -43.7351 138.126 C 40.6182 84.6245, 177.382 84.6245, 261.735 138.126" fill="#231d27" fill-opacity="0.501961" />
<path d="M 5 44 L 217 -16 L -16 -13 Z" fill="#387dac" fill-opacity="0.501961" />
<path d="M 36.6274 193.929 C 49.1242 197.834, 49.1242 204.166, 36.6274 208.071 C 24.1306 211.976, 3.86936 211.976, -8.62742 208.071 C -21.1242 204.166, -21.1242 197.834, -8.62742 193.929 C 3.86936 190.024, 24.1306 190.024, 36.6274 193.929" fill="#dadfe5" fill-opacity="0.501961" />
<path d="M 267.956 131.637 L 218.986 133.347 L 218.044 106.363 L 267.014 104.653 Z" fill="#cad7e6" fill-opacity="0.501961" />
<path d="M 53 189 L 123 189 L 123 224 L 53 224 Z" fill="#87878c" fill-opacity="0.501961" />
<path d="M 163.282 28.2753 C 196.618 21.738, 247.795 29.6651, 277.591 45.981 C 307.386 62.2969, 304.517 80.823, 271.181 87.3603 C 237.846 93.8976, 186.668 85.9705, 156.873 69.6546 C 127.077 53.3387, 129.947 34.8126, 163.282 28.2753" fill="#e2e2e3" fill-opacity="0.501961" />
<path d="M 205.678 85.3223 C 215.441 95.0854, 215.441 110.915, 205.678 120.678 C 195.915 130.441, 180.085 130.441, 170.322 120.678 C 160.559 110.915, 160.559 95.0854, 170.322 85.3223 C 180.085 75.5592, 195.915 75.5592, 205.678 85.3223" fill="#1f203c" fill-opacity="0.501961" />
<path d="M 262 271 L 135 224 L 241 179 Z" fill="#201c1c" fill-opacity="0.501961" />
<path d="M 143 249 L 187 249 L 187 255 L 143 255 Z" fill="#dbd9d5" fill-opacity="0.501961" />
<path d="M 25 271 L 21 223 L 66 261 Z" fill="#939fab" fill-opacity="0.501961" />
<path d="M 108 214 L 51 211 L 120 180 Z" fill="#2d2832" fill-opacity="0.501961" />
<path d="M -16.2541 110.404 L -13.6494 95.6322 L 122.254 119.596 L 119.649 134.368 Z" fill="#252329" fill-opacity="0.501961" />
<path d="M 100.76 229.576 L 122.825 188.077 L 127.24 190.424 L 105.175 231.923 Z" fill="#d8d0cb" fill-opacity="0.501961" />
<path d="M 262.492 53.6863 C 344.503 59.9347, 344.503 70.0653, 262.492 76.3137 C 180.482 82.5621, 47.5177 82.5621, -34.4924 76.3137 C -116.503 70.0653, -116.503 59.9347, -34.4924 53.6863 C 47.5177 47.4379, 180.482 47.4379, 262.492 53.6863" fill="#d7d6d6" fill-opacity="0.501961" />
<path d="M 200 139 L 240 139 L 240 146 L 200 146 Z" fill="#9fa3ae" fill-opacity="0.501961" />
<path d="M 135 226 L 128 217 L 108 247 Z" fill="#afb2bd" fill-opacity="0.501961" />
<path d="M 195.899 156.05 C 201.367 158.784, 201.367 163.216, 195.899 165.95 C 190.432 168.683, 181.568 168.683, 176.101 165.95 C 170.633 163.216, 170.633 158.784, 176.101 156.05 C 181.568 153.317, 190.432 153.317, 195.899 156.05" fill="#8a99b1" fill-opacity="0.501961" />
<path d="M 271 9 L 204 89 L 200 -16 Z" fill="#d5d6da" fill-opacity="0.501961" />
<path d="M 88.8321 103.667 C 53.7124 102.935, 53.1076 96.474, 87.4813 89.2365 C 121.855 81.999, 178.191 76.7255, 213.31 77.4578 C 248.43 78.1901, 249.035 84.6509, 214.661 91.8884 C 180.287 99.1259, 123.952 104.399, 88.8321 103.667" fill="#6a819a" fill-opacity="0.501961" />
<path d="M 150 92 L 138 92 L 138 104 L 150 104 Z" fill="#070006" fill-opacity="0.501961" />
<path d="M 40.7673 215.062 C 47.4761 213.558, 58.3321 213.649, 65.0148 215.266 C 71.6975 216.882, 71.6762 219.412, 64.9674 220.916 C 58.2585 222.42, 47.4025 222.329, 40.7199 220.712 C 34.0372 219.096, 34.0584 216.566, 40.7673 215.062" fill="#b8b3ae" fill-opacity="0.501961" />
<path d="M 186 -12 L -7 36 L -16 100 Z" fill="#99b0c3" fill-opacity="0.501961" />
<path d="M 146.192 119.808 C 151.269 124.884, 151.269 133.116, 146.192 138.192 C 141.116 143.269, 132.884 143.269, 127.808 138.192 C 122.731 133.116, 122.731 124.884, 127.808 119.808 C 132.884 114.731, 141.116 114.731, 146.192 119.808" fill="#718399" fill-opacity="0.501961" />
<path d="M 154.976 234.284 L 133.956 159.998 L 174.313 245.44 L 162.448 260.42 Z" fill="#27242a" fill-opacity="0.501961" />
<path d="M 187.179 252.867 L 178.547 261.203 L 168.821 251.133 L 177.453 242.797 Z" fill="#cecfd0" fill-opacity="0.501961" />
<path d="M 93.435 188.636 C 100.855 192.151, 100.855 197.849, 93.435 201.364 C 86.0151 204.879, 73.9849 204.879, 66.565 201.364 C 59.145 197.849, 59.145 192.151, 66.565 188.636 C 73.9849 185.121, 86.0151 185.121, 93.435 188.636" fill="#8495a8" fill-opacity="0.501961" />
<path d="M 59.3742 144.303 L 98.0224 125.453 L 118.626 167.697 L 79.9776 186.547 Z" fill="#292733" fill-opacity="0.501961" />
<path d="M 162.536 92.0503 C 164.488 94.7839, 164.488 99.2161, 162.536 101.95 C 160.583 104.683, 157.417 104.683, 155.464 101.95 C 153.512 99.2161, 153.512 94.7839, 155.464 92.0503 C 157.417 89.3166, 160.583 89.3166, 162.536 92.0503" fill="#d7dfe5" fill-opacity="0.501961" />
<path d="M 116 245 L 156 245 L 156 250 L 116 250 Z" fill="#aca5a1" fill-opacity="0.501961" />
<path d="M 187.289 182.88 C 194.826 176.682, 208.733 172.991, 218.352 174.636 C 227.97 176.281, 229.658 182.639, 222.121 188.837 C 214.584 195.035, 200.677 198.726, 191.058 197.081 C 181.44 195.436, 179.752 189.078, 187.289 182.88" fill="#1d1c24" fill-opacity="0.501961" />
<path d="M 232.067 124.56 C 224.761 118.799, 226.058 116.313, 234.963 119.008 C 243.868 121.703, 257.01 128.559, 264.315 134.321 C 271.62 140.083, 270.323 142.569, 261.418 139.873 C 252.513 137.178, 239.372 130.322, 232.067 124.56" fill="#484d6a" fill-opacity="0.501961" />
<path d="M 150 132 L 197 76 L 218 136 Z" fill="#2e2c40" fill-opacity="0.501961" />
<path d="M 87 159 L 194 182 L 129 143 Z" fill="#515f7f" fill-opacity="0.501961" />
<path d="M 155 214 L 106 232 L 167 141 Z" fill="#30282f" fill-opacity="0.501961" />
<path d="M 173 209 L 170 165 L 189 154 Z" fill="#6e7f9f" fill-opacity="0.501961" />
<path d="M 56.9213 142.847 C 43.7616 142.41, 24.2747 136.043, 13.3962 128.625 C 2.51759 121.207, 4.36684 115.547, 17.5266 115.984 C 30.6863 116.421, 50.1732 122.788, 61.0518 130.206 C 71.9303 137.624, 70.0811 143.284, 56.9213 142.847" fill="#5d6c88" fill-opacity="0.501961" />
<path d="M 22.6463 248.076 C 22.5454 258.353, 15.4811 262.139, 6.86778 256.531 C -1.7455 250.924, -8.64607 238.047, -8.54509 227.77 C -8.4441 217.493, -1.3798 213.707, 7.23347 219.314 C 15.8467 224.922, 22.7473 237.799, 22.6463 248.076" fill="#201c22" fill-opacity="0.501961" />
<path d="M 198.991 164.98 L 249.62 169.11 L 271 207.318 L 254.391 182.725 Z" fill="#798097" fill-opacity="0.501961" />
<path d="M 271.241 173.117 C 242.821 168.821, 197.541 158.387, 170.106 149.813 C 142.671 141.239, 143.47 137.771, 171.89 142.067 C 200.311 146.364, 245.591 156.798, 273.026 165.372 C 300.461 173.946, 299.662 177.414, 271.241 173.117" fill="#232139" fill-opacity="0.501961" />
<path d="M 71 214 L 99 214 L 99 222 L 71 222 Z" fill="#b3b2ad" fill-opacity="0.501961" />
<path d="M 80.9853 4.61491 C 45.0887 15.1557, -14.3215 24.7557, -51.711 26.0572 C -89.1006 27.3587, -90.3109 19.8688, -54.4143 9.32805 C -18.5177 -1.2127, 40.8925 -10.8127, 78.282 -12.1142 C 115.672 -13.4157, 116.882 -5.92583, 80.9853 4.61491" fill="#4c7fa6" fill-opacity="0.501961" />
<path d="M 26.6777 205.464 C 36.4408 207.417, 36.4408 210.583, 26.6777 212.536 C 16.9146 214.488, 1.08544 214.488, -8.67767 212.536 C -18.4408 210.583, -18.4408 207.417, -8.67767 205.464 C 1.08544 203.512, 16.9146 203.512, 26.6777 205.464" fill="#a97d7d" fill-opacity="0.501961" />
<path d="M 57.314 226.175 L 109.203 254.254 L 100.313 203.231 L 117.239 237.373 Z" fill="#262527" fill-opacity="0.501961" />
<path d="M 85.1287 246.352 C 81.673 246.893, 76.4738 245.819, 73.516 243.952 C 70.5581 242.085, 70.9616 240.132, 74.4173 239.591 C 77.873 239.05, 83.0721 240.124, 86.03 241.991 C 88.9879 243.858, 88.5843 245.811, 85.1287 246.352" fill="#aeadaa" fill-opacity="0.501961" />
<path d="M 35 145 L 52 145 L 52 196 L 35 196 Z" fill="#332b30" fill-opacity="0.501961" />
<path d="M 47.6181 234.113 C 50.1179 239.906, 47.1589 243.46, 41.009 242.051 C 34.8592 240.642, 27.8473 234.804, 25.3476 229.011 C 22.8479 223.218, 25.8069 219.664, 31.9567 221.073 C 38.1065 222.482, 45.1184 228.32, 47.6181 234.113" fill="#272429" fill-opacity="0.501961" />
<path d="M 72.0833 88.9289 C 98.6389 92.8342, 98.6389 99.1658, 72.0833 103.071 C 45.5276 106.976, 2.47239 106.976, -24.0833 103.071 C -50.6389 99.1658, -50.6389 92.8342, -24.0833 88.9289 C 2.47239 85.0237, 45.5276 85.0237, 72.0833 88.9289" fill="#4e5879" fill-opacity="0.501961" />
<path d="M 38 205 L 101 205 L 101 212 L 38 212 Z" fill="#211e20" fill-opacity="0.501961" />
<path d="M 220 104 L 243 104 L 243 115 L 220 115 Z" fill="#ced9dc" fill-opacity="0.501961" />
<path d="M 262.87 83.0503 C 277.71 85.7839, 277.71 90.2161, 262.87 92.9497 C 248.03 95.6834, 223.97 95.6834, 209.13 92.9497 C 194.29 90.2161, 194.29 85.7839, 209.13 83.0503 C 223.97 80.3166, 248.03 80.3166, 262.87 83.0503" fill="#7aa7be" fill-opacity="0.501961" />
<path d="M 151 177 L 130 268 L 153 232 Z" fill="#2c2a2f" fill-opacity="0.501961" />
<path d="M 61.3634 174.644 L 59.9852 169.837 L 68.6366 167.356 L 70.0148 172.163 Z" fill="#ffbe8a" fill-opacity="0.501961" />
<path d="M 145 251 L 151 240 L 176 271 Z" fill="#cec7c4" fill-opacity="0.501961" />
<path d="M 72 268 L 44 240 L 144 255 Z" fill="#292627" fill-opacity="0.501961" />
<path d="M 123 81 L 88 81 L 120 105 Z" fill="#829fb4" fill-opacity="0.501961" />
<path d="M 109 207 L 116 207 L 116 218 L 109 218 Z" fill="#e5e5e3" fill-opacity="0.501961" />
<path d="M 147 119 L 153 119 L 153 127 L 147 127 Z" fill="#bdbdbb" fill-opacity="0.501961" />
<path d="M 57.9236 230.857 L 45.4916 227.056 L 46.0764 225.143 L 58.5084 228.944 Z" fill="#c3dee8" fill-opacity="0.501961" />
<path d="M 34 188 L 39 182 L 36 192 Z" fill="#cdc9c6" fill-opacity="0.501961" />
<path d="M 195.372 144.977 L 196.764 135.074 L 210.628 137.023 L 209.236 146.926 Z" fill="#afb6c1" fill-opacity="0.501961" />
<path d="M 88.4767 176.464 C 109.174 178.417, 109.174 181.583, 88.4767 183.536 C 67.7789 185.488, 34.2211 185.488, 13.5233 183.536 C -7.17445 181.583, -7.17445 178.417, 13.5233 176.464 C 34.2211 174.512, 67.7789 174.512, 88.4767 176.464" fill="#2b262a" fill-opacity="0.501961" />
<path d="M 216.128 165.07 L 243.961 158.563 L 216.494 140.696 L 156.621 200.604 Z" fill="#313455" fill-opacity="0.501961" />
<path d="M 39.6669 128.312 L 15.9203 128.7 L -16 126.059 L -16 217.916 Z" fill="#2e3040" fill-opacity="0.501961" />
<path d="M 76 105 L 152 111 L 91 130 Z" fill="#2a2830" fill-opacity="0.501961" />
<path d="M 124.459 82.8787 C 177.18 84.0503, 177.18 85.9497, 124.459 87.1213 C 71.7386 88.2929, -13.7386 88.2929, -66.4594 87.1213 C -119.18 85.9497, -119.18 84.0503, -66.4594 82.8787 C -13.7386 81.7071, 71.7386 81.7071, 124.459 82.8787" fill="#699bb5" fill-opacity="0.501961" />
<path d="M 204 226 L 205 239 L 209 224 Z" fill="#9f8e92" fill-opacity="0.501961" />
<path d="M 226.29 96.3417 L 271 92.1577 L 255.157 107.096 L 218.383 102.707 Z" fill="#325892" fill-opacity="0.501961" />
<path d="M 175.743 119.943 L 188.693 121.076 L 188.257 126.057 L 175.307 124.924 Z" fill="#6e7dae" fill-opacity="0.501961" />
<path d="M 171.716 210.601 C 168.191 213.174, 165.746 211.746, 166.257 207.411 C 166.768 203.076, 170.04 197.475, 173.566 194.902 C 177.092 192.329, 179.536 193.757, 179.025 198.092 C 178.514 202.427, 175.242 208.027, 171.716 210.601" fill="#a58778" fill-opacity="0.501961" />
<path d="M 22 231 L 27 231 L 27 243 L 22 243 Z" fill="#c6cfd1" fill-opacity="0.501961" />
<path d="M 143.495 134.438 L 109.026 140.516 L 108.505 137.562 L 142.974 131.484 Z" fill="#1f1d24" fill-opacity="0.501961" />
<path d="M 216 118 L 231 118 L 231 124 L 216 124 Z" fill="#404a6c" fill-opacity="0.501961" />
<path d="M 61 168 L 7 176 L 39 156 Z" fill="#65596b" fill-opacity="0.501961" />
<path d="M 176.653 88.8623 C 194.06 89.0327, 194.111 90.381, 176.768 91.8736 C 159.424 93.3663, 131.252 94.4382, 113.845 94.2677 C 96.4379 94.0973, 96.3866 92.749, 113.731 91.2564 C 131.074 89.7637, 159.246 88.6918, 176.653 88.8623" fill="#3f4d6f" fill-opacity="0.501961" />
<path d="M 126.799 35.1551 L 94.7549 73.8359 L 179.555 84.536 L 193.517 76.3603 Z" fill="#d0d2d4" fill-opacity="0.501961" />
<path d="M 173.535 230.957 L 178.535 231.044 L 178.465 235.043 L 173.465 234.956 Z" fill="#ced8ed" fill-opacity="0.501961" />
<path d="M 129.766 259.949 L 84.6658 218.34 L 66.5178 245.325 L 55.0524 215.309 Z" fill="#373234" fill-opacity="0.501961" />
<path d="M 151.571 229.487 L 153.363 234.155 L 152.429 234.513 L 150.637 229.845 Z" fill="#ffffff" fill-opacity="0.501961" />
<path d="M 114 35 L 203 -16 L 15 33 Z" fill="#87a6bc" fill-opacity="0.501961" />
<path d="M 104.939 255.856 L 102.263 258.828 L 97.0607 254.144 L 99.7373 251.172 Z" fill="#d8d0d3" fill-opacity="0.501961" />
<path d="M 87.3208 69.067 L -45.7072 97.343 L -51.3208 70.933 L 81.7072 42.657 Z" fill="#c5c6c7" fill-opacity="0.501961" />
<path d="M 124.585 199.27 L 114.85 159.754 L 88.1396 139.893 L 126.391 199.128 Z" fill="#2d2937" fill-opacity="0.501961" />
<path d="M 208.977 137.125 L 167.6 100.63 L 192.752 89.5231 L 219.517 107.011 Z" fill="#312e41" fill-opacity="0.501961" />
<path d="M 66.9118 190.769 L 61.2547 186.697 L 37.2094 206.977 L 58.2211 197.731 Z" fill="#8091a4" fill-opacity="0.501961" />
<path d="M 118.839 149.534 L 121.031 145.04 L 173.161 170.466 L 170.969 174.96 Z" fill="#667890" fill-opacity="0.501961" />
<path d="M 152 83 L 163 83 L 163 103 L 152 103 Z" fill="#99b2bf" fill-opacity="0.501961" />
<path d="M 247 118 L 226 126 L 242 142 Z" fill="#868ea0" fill-opacity="0.501961" />
<path d="M 129.255 232.968 L 129.648 218.949 L 113.044 239.57 L 118.985 238.14 Z" fill="#99a6af" fill-opacity="0.501961" />
<path d="M 6 118 L 15 118 L 15 147 L 6 147 Z" fill="#5f6c82" fill-opacity="0.501961" />
<path d="M 177.021 147.757 C 183.66 150.101, 183.66 153.899, 177.021 156.243 C 170.382 158.586, 159.618 158.586, 152.979 156.243 C 146.34 153.899, 146.34 150.101, 152.979 147.757 C 159.618 145.414, 170.382 145.414, 177.021 147.757" fill="#221f24" fill-opacity="0.501961" />
<path d="M 69.8927 108.767 L 72.1221 110.774 L 68.1073 115.233 L 65.8779 113.226 Z" fill="#cda38e" fill-opacity="0.501961" />
<path d="M 144.361 199.441 L 137.307 212.851 L 128.239 186.566 L 145.045 194.316 Z" fill="#7b5b4c" fill-opacity="0.501961" />
<path d="M 36.1213 247.05 C 37.2929 249.784, 37.2929 254.216, 36.1213 256.95 C 34.9497 259.683, 33.0503 259.683, 31.8787 256.95 C 30.7071 254.216, 30.7071 249.784, 31.8787 247.05 C 33.0503 244.317, 34.9497 244.317, 36.1213 247.05" fill="#251a2d" fill-opacity="0.501961" />
<path d="M 40 100 L 67 100 L 67 126 L 40 126 Z" fill="#2f2e36" fill-opacity="0.501961" />
<path d="M 255 19 L 202 19 L 202 80 L 255 80 Z" fill="#d4d4d4" fill-opacity="0.501961" />
<path d="M 185.036 157.608 L 192.983 153.382 L 200.964 168.392 L 193.017 172.618 Z" fill="#8b909c" fill-opacity="0.501961" />
<path d="M 123 123 L 130 123 L 130 132 L 123 132 Z" fill="#7fa2bb" fill-opacity="0.501961" />
<path d="M 87 217 L 103 217 L 103 224 L 87 224 Z" fill="#a5adb7" fill-opacity="0.501961" />
<path d="M 202.697 131.143 L 147.693 180.856 L 176.101 107.09 L 202.141 177.457 Z" fill="#37374d" fill-opacity="0.501961" />
<path d="M 17.0208 90.636 C 23.6597 94.1508, 23.6597 99.8492, 17.0208 103.364 C 10.3819 106.879, -0.381902 106.879, -7.02082 103.364 C -13.6597 99.8492, -13.6597 94.1508, -7.02082 90.636 C -0.381902 87.1213, 10.3819 87.1213, 17.0208 90.636" fill="#748192" fill-opacity="0.501961" />
<path d="M 57.738 143.557 L 91.5261 135.844 L 57.676 137.677 L 28.1459 134.686 Z" fill="#6c7583" fill-opacity="0.501961" />
<path d="M 147.996 93.5084 L 200.082 90.4869 L 203.189 70.6781 L 200.284 75.5975 Z" fill="#4f5773" fill-opacity="0.501961" />
<path d="M 31 61 L 255 -16 L 162 53 Z" fill="#b6c1cd" fill-opacity="0.501961" />
<path d="M 270 102 L 267 157 L 225 175 Z" fill="#33344f" fill-opacity="0.501961" />
<path d="M 210.486 170.094 L 227.444 168.908 L 227.514 169.906 L 210.556 171.092 Z" fill="#c9cdd1" fill-opacity="0.501961" />
<path d="M 81.8536 95.2143 L 144.152 104.031 L 128.29 103.2 L 138.199 95.6782 Z" fill="#949ba9" fill-opacity="0.501961" />
<path d="M 154 106 L 194 106 L 194 117 L 154 117 Z" fill="#2a272c" fill-opacity="0.501961" />
<path d="M 218.204 104.734 L 232.887 105.39 L 258.645 130.325 L 271 110.431 Z" fill="#c5cbcf" fill-opacity="0.501961" />
<path d="M 193 253 L 201 253 L 201 255 L 193 255 Z" fill="#aebccb" fill-opacity="0.501961" />
<path d="M 99 215 L 87 196 L 81 212 Z" fill="#322e37" fill-opacity="0.501961" />
<path d="M 237.071 145.619 L 229.193 144.229 L 230.929 134.381 L 238.807 135.771 Z" fill="#33323d" fill-opacity="0.501961" />
<path d="M 2 169 L 76 145 L 36 141 Z" fill="#2d2a32" fill-opacity="0.501961" />
<path d="M 140.971 242.586 C 150.343 243.367, 150.343 244.633, 140.971 245.414 C 131.598 246.195, 116.402 246.195, 107.029 245.414 C 97.6569 244.633, 97.6569 243.367, 107.029 242.586 C 116.402 241.805, 131.598 241.805, 140.971 242.586" fill="#333134" fill-opacity="0.501961" />
<path d="M 38 199 L -16 185 L 14 206 Z" fill="#9bb0bc" fill-opacity="0.501961" />
<path d="M 39.2322 252.08 L 36.9379 248.803 L 46.7678 241.92 L 49.0621 245.197 Z" fill="#97a4b1" fill-opacity="0.501961" />
<path d="M 142.246 113.066 L 147.017 119.032 L 171.582 109.044 L 132.717 127.331 Z" fill="#302c3c" fill-opacity="0.501961" />
</g>
</svg>
