<svg version="1.1" width="144" height="144" xmlns="http://www.w3.org/2000/svg">
<rect x="0" y="0" width="144" height="144" fill="#a34195" />
<g transform="scale(1, 1)">
<path d="M 117 38 L 31 107 L 136 111 Z" fill="#fcf9fc" fill-opacity="0.501961" />
<path d="M -16 -1 L 105 -16 L 5 159 Z" fill="#7f006c" fill-opacity="0.501961" />
<path d="M 71 114 L 62 46 L 80 46 Z" fill="#ffffff" fill-opacity="0.501961" />
<path d="M 79 62 L 78 94 L 119 96 Z" fill="#600048" fill-opacity="0.501961" />
<path d="M -12 -9 L 159 63 L 147 -10 Z" fill="#850172" fill-opacity="0.501961" />
<path d="M 91 75 L 92 53 L 138 96 Z" fill="#ffffff" fill-opacity="0.501961" />
<path d="M 50 107 L 34 133 L 133 128 Z" fill="#d5a9cf" fill-opacity="0.501961" />
<path d="M 98 58 L 159 62 L 159 102 Z" fill="#790065" fill-opacity="0.501961" />
<path d="M 89 118 L 87 59 L 73 118 Z" fill="#780064" fill-opacity="0.501961" />
<path d="M 117 44 L 84 51 L 134 60 Z" fill="#ffffff" fill-opacity="0.501961" />
<path d="M 64 99 L 45 93 L 64 41 Z" fill="#790065" fill-opacity="0.501961" />
<path d="M 82 49 L 65 47 L 66 108 Z" fill="#ffffff" fill-opacity="0.501961" />
<path d="M 134 98 L 111 115 L 85 99 Z" fill="#ffffff" fill-opacity="0.501961" />
<path d="M 79 98 L 60 113 L 37 100 Z" fill="#ffffff" fill-opacity="0.501961" />
<path d="M 139 159 L 159 54 L 127 109 Z" fill="#7d006a" fill-opacity="0.501961" />
<path d="M 115 31 L 79 64 L 78 24 Z" fill="#830070" fill-opacity="0.501961" />
<path d="M 130 105 L 132 82 L 97 64 Z" fill="#ffffff" fill-opacity="0.501961" />
<path d="M 61 113 L 76 43 L 79 95 Z" fill="#ffffff" fill-opacity="0.501961" />
<path d="M 30 159 L 134 137 L 9 129 Z" fill="#81006e" fill-opacity="0.501961" />
<path d="M 90 118 L 42 118 L 92 103 Z" fill="#82006e" fill-opacity="0.501961" />
<path d="M 88 65 L 97 47 L 126 51 Z" fill="#ffffff" fill-opacity="0.501961" />
<path d="M 111 104 L 119 90 L 80 73 Z" fill="#850073" fill-opacity="0.501961" />
<path d="M 124 132 L 89 119 L 128 118 Z" fill="#e8d0e5" fill-opacity="0.501961" />
<path d="M 84 100 L 103 112 L 131 103 Z" fill="#ffffff" fill-opacity="0.501961" />
<path d="M 77 118 L 80 34 L 94 80 Z" fill="#8d047c" fill-opacity="0.501961" />
<path d="M -4 151 L -6 78 L 54 114 Z" fill="#8f147e" fill-opacity="0.501961" />
<path d="M 75 111 L 43 110 L 43 96 Z" fill="#ffffff" fill-opacity="0.501961" />
<path d="M 153 48 L 106 66 L 159 96 Z" fill="#8d0b7b" fill-opacity="0.501961" />
<path d="M 86 100 L 113 112 L 96 92 Z" fill="#ffffff" fill-opacity="0.501961" />
<path d="M -16 42 L 55 -16 L 159 46 Z" fill="#911b81" fill-opacity="0.501961" />
<path d="M 44 133 L 41 118 L 37 127 Z" fill="#ffffff" fill-opacity="0.501961" />
<path d="M 55 126 L 67 128 L 55 120 Z" fill="#ffffff" fill-opacity="0.501961" />
<path d="M 117 120 L 94 117 L 135 108 Z" fill="#840071" fill-opacity="0.501961" />
</g>
</svg>
