<?xml version="1.0" standalone="no"?>
<!DOCTYPE svg PUBLIC "-//W3C//DTD SVG 1.1//EN" "http://www.w3.org/Graphics/SVG/1.1/DTD/svg11.dtd">
<svg width="100%" height="100%" viewBox="0 0 375 130" version="1.1" xmlns="http://www.w3.org/2000/svg" xmlns:xlink="http://www.w3.org/1999/xlink" xml:space="preserve" style="fill-rule:evenodd;clip-rule:evenodd;stroke-linejoin:round;stroke-miterlimit:1.41421;">
    <g>
        <path d="M12.233,0.075C12.753,0.071 13.273,0.064 13.793,0.064C129.376,0.063 244.959,0.063 360.541,0.064C361.061,0.064 361.581,0.077 362.101,0.084C362.112,0.483 362.133,0.882 362.133,1.281C362.135,25.918 362.128,50.555 362.157,75.192C362.158,76.245 361.959,76.691 360.815,76.569C359.787,76.459 358.735,76.5 357.699,76.561C356.933,76.605 356.623,76.401 356.675,75.578C356.745,74.462 356.692,73.339 356.692,72.219C356.692,50.342 356.682,28.465 356.722,6.588C356.724,5.49 356.411,5.321 355.407,5.321C243.262,5.345 131.116,5.345 18.97,5.317C17.838,5.316 17.466,5.538 17.531,6.727C17.643,8.801 17.534,10.886 17.577,12.964C17.591,13.651 17.376,13.85 16.705,13.825C15.427,13.776 14.145,13.79 12.866,13.821C12.351,13.833 12.178,13.681 12.181,13.151C12.213,8.792 12.219,4.434 12.233,0.075Z" style="fill:black;fill-rule:nonzero;"/>
        <path d="M187.039,129.251C129.246,129.251 71.453,129.247 13.661,129.276C12.511,129.277 12.155,129.083 12.157,127.826C12.203,103.109 12.197,78.392 12.17,53.675C12.169,52.691 12.3,52.237 13.429,52.357C14.576,52.479 15.746,52.408 16.905,52.373C17.438,52.357 17.624,52.543 17.567,53.057C17.537,53.333 17.562,53.616 17.562,53.896C17.562,76.773 17.57,99.65 17.538,122.527C17.536,123.604 17.779,123.907 18.896,123.907C131.042,123.878 243.188,123.879 355.334,123.903C356.388,123.903 356.777,123.701 356.722,122.56C356.62,120.446 356.718,118.322 356.678,116.203C356.665,115.513 356.886,115.303 357.564,115.328C358.842,115.375 360.124,115.368 361.403,115.33C361.987,115.312 362.148,115.509 362.145,116.081C362.125,120.24 362.12,124.4 362.15,128.559C362.154,129.193 361.906,129.306 361.376,129.256C361.059,129.226 360.737,129.251 360.417,129.251C302.624,129.251 244.832,129.251 187.039,129.251Z" style="fill:black;fill-rule:nonzero;"/>
        <path d="M181.334,40.33C169.626,48.136 157.919,55.942 146.128,63.803C158.96,72.286 171.729,80.727 184.561,89.209C184.178,89.522 183.812,89.403 183.486,89.404C180.246,89.415 177.006,89.39 173.766,89.426C173.046,89.434 172.472,89.236 171.888,88.839C161.193,81.57 150.485,74.32 139.793,67.046C139.2,66.643 138.627,66.44 137.911,66.454C136.072,66.49 134.229,66.524 132.393,66.443C131.376,66.398 131.042,66.622 131.051,67.732C131.112,74.571 131.064,81.411 131.104,88.25C131.109,89.171 130.903,89.492 129.938,89.434C128.464,89.346 126.977,89.358 125.501,89.431C124.657,89.472 124.444,89.226 124.447,88.381C124.48,79.782 124.467,71.182 124.467,62.583C124.467,55.464 124.483,48.344 124.447,41.225C124.443,40.362 124.596,40.034 125.539,40.096C126.973,40.189 128.421,40.185 129.856,40.098C130.828,40.038 131.119,40.279 131.11,41.31C131.053,47.429 131.114,53.549 131.053,59.668C131.042,60.791 131.359,61.077 132.438,61.025C134.274,60.935 136.119,60.949 137.956,61.02C139.008,61.061 139.854,60.774 140.722,60.184C150.359,53.63 160.018,47.109 169.673,40.58C169.997,40.361 170.282,40.109 170.735,40.111C174.246,40.129 177.758,40.121 181.27,40.121C181.291,40.191 181.312,40.26 181.334,40.33Z" style="fill:black;fill-rule:nonzero;"/>
        <path d="M251.11,59.75C251.495,55.901 251.505,52 250.722,48.17C250.025,44.76 247.941,42.509 244.665,41.368C242.307,40.546 239.851,40.17 237.375,40.161C223.662,40.115 209.948,40.137 196.234,40.098C195.371,40.095 195.296,40.419 195.298,41.127C195.32,47.844 195.311,54.561 195.311,61.278C195.311,70.314 195.323,79.35 195.291,88.386C195.288,89.228 195.5,89.47 196.342,89.431C197.897,89.359 199.461,89.361 201.018,89.431C201.845,89.468 202.082,89.252 202.075,88.398C202.035,82.601 202.078,76.803 202.031,71.006C202.023,70.091 202.272,69.903 203.153,69.905C213.628,69.939 224.104,69.926 234.579,69.928C235.219,69.929 235.86,69.925 236.496,69.974C237.291,70.035 238.094,70.09 238.873,70.251C242.399,70.983 244.2,73.233 244.279,77.101C244.355,80.857 244.372,84.614 244.352,88.371C244.347,89.216 244.587,89.466 245.422,89.429C246.898,89.364 248.38,89.389 249.859,89.422C250.418,89.434 250.618,89.283 250.614,88.692C250.577,84.254 250.661,79.814 250.527,75.38C250.433,72.25 248.851,69.967 245.943,68.657C244.861,68.17 243.71,67.904 242.59,67.357C242.864,67.33 243.139,67.308 243.412,67.275C248.098,66.716 250.644,64.416 251.11,59.75ZM239.752,63.865C238.088,64.332 236.373,64.453 234.654,64.457C229.736,64.468 224.818,64.461 219.9,64.461C214.302,64.461 208.704,64.444 203.106,64.479C202.307,64.484 202.026,64.342 202.032,63.464C202.076,57.826 202.071,52.188 202.036,46.55C202.031,45.768 202.237,45.566 203.019,45.568C213.415,45.595 223.811,45.574 234.207,45.597C236.321,45.602 238.429,45.764 240.476,46.392C242.766,47.095 244.202,48.588 244.428,50.979C244.676,53.605 244.7,56.263 244.431,58.883C244.148,61.628 242.308,63.148 239.752,63.865Z" style="fill:black;fill-rule:nonzero;"/>
        <path d="M108.5,82.167C100.339,68.419 92.176,54.673 84.033,40.914C83.684,40.325 83.32,40.087 82.627,40.103C80.468,40.15 78.307,40.161 76.149,40.098C75.401,40.076 75.019,40.336 74.655,40.951C68.465,51.42 62.255,61.876 56.048,72.334C52.713,77.952 49.375,83.568 45.904,89.411C48.276,89.411 50.429,89.382 52.581,89.427C53.274,89.442 53.644,89.213 53.989,88.61C55.649,85.703 57.378,82.835 59.05,79.934C59.419,79.292 59.806,78.996 60.618,78.999C73.136,79.034 85.653,79.028 98.171,79.009C98.844,79.008 99.231,79.182 99.582,79.798C101.256,82.744 102.987,85.656 104.718,88.569C104.924,88.916 105.015,89.417 105.605,89.414C107.945,89.402 110.285,89.409 112.81,89.409C111.303,86.877 109.899,84.523 108.5,82.167ZM62.885,73.459C68.371,64.173 73.81,54.967 79.355,45.581C84.882,54.93 90.326,64.141 95.834,73.459C84.804,73.459 73.944,73.459 62.885,73.459Z" style="fill:black;fill-rule:nonzero;"/>
        <path d="M322.073,78.741C314.602,66.159 307.124,53.581 299.678,40.985C299.276,40.306 298.855,40.08 298.087,40.101C296.01,40.157 293.927,40.169 291.85,40.097C291.007,40.067 290.586,40.383 290.178,41.073C282.71,53.698 275.22,66.308 267.733,78.922C265.687,82.37 263.638,85.819 261.506,89.41C263.981,89.41 266.288,89.393 268.595,89.422C269.174,89.429 269.316,89.032 269.534,88.663C271.276,85.711 273.042,82.772 274.738,79.794C275.092,79.172 275.48,79.009 276.146,79.01C288.663,79.028 301.179,79.034 313.696,78.999C314.51,78.996 314.895,79.297 315.264,79.939C316.954,82.876 318.687,85.787 320.39,88.716C320.648,89.161 320.908,89.436 321.495,89.426C323.731,89.388 325.968,89.411 328.403,89.411C326.214,85.721 324.145,82.23 322.073,78.741ZM278.495,73.434C283.986,64.143 289.424,54.941 294.955,45.584C300.479,54.93 305.915,64.126 311.418,73.434C300.408,73.434 289.537,73.434 278.495,73.434Z" style="fill:black;fill-rule:nonzero;"/>
    </g>
    <path id="XMLID_2_" d="M344.463,96.18C344.483,87.04 351.623,81.22 359.433,81.19C367.533,81.16 374.313,88 374.313,96.11C374.313,104.33 367.593,111.13 359.373,111.09C351.393,111.06 344.433,105 344.463,96.18ZM355.723,84.25C352.773,84.26 350.623,86.46 350.673,89.42C350.723,92.13 352.963,94.29 355.723,94.29C358.523,94.3 360.763,92.12 360.813,89.32C360.863,86.54 358.573,84.25 355.723,84.25Z" style="fill:black;fill-rule:nonzero;"/>
    <path id="XMLID_1_" d="M0.003,33.5C0.003,25 6.503,18.54 15.033,18.54C23.123,18.55 29.733,25.23 29.733,33.4C29.743,41.74 23.193,48.35 14.893,48.38C6.563,48.41 -0.007,41.85 0.003,33.5ZM11.213,21.61C8.223,21.61 6.183,23.66 6.193,26.66C6.203,29.39 8.523,31.67 11.283,31.65C14.033,31.63 16.223,29.36 16.233,26.54C16.233,23.65 14.153,21.6 11.213,21.61Z" style="fill:black;fill-rule:nonzero;"/>
</svg>
