<?xml version="1.0" encoding="utf-8"?>
<svg version="1.1" id="jimdo-logo" xmlns="http://www.w3.org/2000/svg" xmlns:xlink="http://www.w3.org/1999/xlink" x="0px" y="0px"
     viewBox="0 0 291.1 63.3" enable-background="new 0 0 291.1 63.3" xml:space="preserve">

<style type="text/css">
    #jimdo-logo__group-1 path {
        fill:#ffffff;
    }
    #jimdo-logo__group-2 path,
    #jimdo-logo__group-2 circle {
        fill:#ffffff;
    }
</style>

<g id="jimdo-logo__group-1">
    <path d="M3.1,36.6c-1.7,0-3.1,1.4-3.1,3.1l0,0.4c0,13,11.5,23.3,27.1,23.3c18.5,0,27.1-11.3,27.1-27.4
        c0-12.1,0-32.2,0-32.2c0-1.7-1.4-3.1-3.1-3.1H15.9c-1.7,0-3.1,1.4-3.1,3.1v9.4c0,1.7,1.4,3.1,3.1,3.1h19.1c1.7,0,3.1,1.4,3.1,3.1
        v17.6c0,4.3-3.5,11.7-11.2,11.7c-4.7,0-9.1-3.8-10.4-8.4l-0.2-0.7c-0.5-1.6-2.4-2.9-4.1-2.9H3.1z"/>

    <path d="M81.4,59.3c0,1.6-1.3,2.8-2.8,2.8H68c-1.6,0-2.8-1.3-2.8-2.8V3.4c0-1.6,1.3-2.8,2.8-2.8h10.5
        c1.6,0,2.8,1.3,2.8,2.8V59.3z"/>

    <path d="M151.2,62.1c0.8,0,1.5-0.3,2-0.8L97.2,2c-2.6-2.8-4.8-1.9-4.8,1.9v55.4c0,1.5,1.3,2.8,2.8,2.8H151.2z"/>
</g>
<g id="jimdo-logo__group-2">
    <path opacity="0.7" d="M93.2,61.3c0.5,0.5,1.2,0.8,2,0.8l55.9,0c1.5,0,2.8-1.2,2.8-2.8V4c0-3.9-2.2-4.8-4.9-1.9
    L93.2,61.3z"/>

    <path d="M185.9,0.6c1.7,0,4.5,0.1,6.1,0.2c0,0,27.7,1.7,27.7,30.6S192,61.9,192,61.9c-1.7,0.1-4.5,0.2-6.1,0.2
        h-17.8c-1.7,0-3.1-1.4-3.1-3.1V3.7c0-1.7,1.4-3.1,3.1-3.1H185.9z"/>

    <circle cx="259.7" cy="31.4" r="31.4"/>
</g>
</svg>
