<?xml version="1.0" standalone="no"?>
<!DOCTYPE svg PUBLIC "-//W3C//DTD SVG 1.1//EN" "http://www.w3.org/Graphics/SVG/1.1/DTD/svg11.dtd">
<svg width="100%" height="100%" viewBox="0 0 568 164" version="1.1" xmlns="http://www.w3.org/2000/svg" xmlns:xlink="http://www.w3.org/1999/xlink" xml:space="preserve" style="fill-rule:evenodd;clip-rule:evenodd;stroke-linejoin:round;stroke-miterlimit:1.41421;">
    <g>
        <path d="M483.971,83.45C478.56,83.45 474.12,87.89 474.12,93.162C474.12,98.574 478.56,103.014 483.971,103.014C489.382,103.014 493.822,98.574 493.822,93.162C493.822,87.89 489.382,83.45 483.971,83.45Z" style="fill:black;fill-rule:nonzero;"/>
        <path d="M520.303,83.45C514.892,83.45 510.452,87.89 510.452,93.162C510.452,98.574 514.892,103.014 520.303,103.014C525.714,103.014 530.154,98.574 530.154,93.162C530.154,87.89 525.714,83.45 520.303,83.45Z" style="fill:black;fill-rule:nonzero;"/>
        <path d="M556.635,83.45C551.224,83.45 546.785,87.89 546.785,93.162C546.785,98.574 551.224,103.014 556.635,103.014C562.047,103.014 566.486,98.574 566.486,93.162C566.486,87.89 562.047,83.45 556.635,83.45Z" style="fill:black;fill-rule:nonzero;"/>
        <path d="M483.971,43.95C478.56,43.95 474.12,48.39 474.12,53.662C474.12,59.076 478.56,63.516 483.971,63.516C489.382,63.516 493.822,59.076 493.822,53.662C493.822,48.39 489.382,43.95 483.971,43.95Z" style="fill:black;fill-rule:nonzero;"/>
        <path d="M520.303,43.95C514.892,43.95 510.452,48.39 510.452,53.662C510.452,59.076 514.892,63.516 520.303,63.516C525.714,63.516 530.154,59.076 530.154,53.662C530.154,48.39 525.714,43.95 520.303,43.95Z" style="fill:black;fill-rule:nonzero;"/>
        <path d="M556.635,43.95C551.224,43.95 546.785,48.39 546.785,53.662C546.785,59.076 551.224,63.516 556.635,63.516C562.047,63.516 566.486,59.076 566.486,53.662C566.486,48.39 562.047,43.95 556.635,43.95Z" style="fill:black;fill-rule:nonzero;"/>
        <path d="M170.457,152.41C170.457,148.845 168.318,145.329 163.529,144.515L163.529,144.412C167.248,143.241 169.693,140.031 169.693,136.415C169.693,131.27 166.077,128.162 158.537,128.162C154.411,128.162 150.897,128.265 148.401,128.315L148.401,162.7C151.762,162.751 155.125,162.853 157.162,162.853C167.911,162.853 170.457,156.536 170.457,152.41ZM164.854,137.179C164.854,140.948 161.849,143.189 156.194,143.189C154.972,143.189 154.055,143.189 153.087,143.139L153.087,132.034C154.462,131.983 156.143,131.932 157.723,131.932C163.275,131.932 164.854,134.122 164.854,137.179ZM165.567,152.562C165.567,156.332 163.071,159.032 157.468,159.032C155.43,159.032 153.953,158.931 153.087,158.777L153.087,146.756C153.902,146.705 155.685,146.705 156.296,146.705C161.594,146.705 165.567,148.131 165.567,152.562Z" style="fill:black;"/>
        <path d="M195.106,129.385C195.106,127.856 193.935,126.635 192.407,126.635C190.879,126.635 189.656,127.856 189.656,129.385C189.656,130.913 190.879,132.085 192.407,132.085C193.935,132.085 195.106,130.913 195.106,129.385ZM185.326,129.385C185.326,127.856 184.154,126.635 182.626,126.635C181.098,126.635 179.875,127.856 179.875,129.385C179.875,130.913 181.098,132.085 182.626,132.085C184.154,132.085 185.326,130.913 185.326,129.385ZM198.061,162.7L198.061,137.383L193.527,137.383L193.527,149.558C193.527,155.161 190.471,159.389 186.294,159.389C182.983,159.389 181.964,157.301 181.964,153.734L181.964,137.383L177.43,137.383L177.43,155.11C177.43,159.593 179.213,163.209 185.02,163.209C189.35,163.209 192.458,160.866 193.935,157.352L194.037,157.402C193.782,158.88 193.629,161.223 193.629,162.7L198.061,162.7Z" style="fill:black;"/>
        <path d="M219.409,136.924C214.366,136.364 211.768,139.879 210.699,143.394L210.597,143.394C211.004,141.305 211.157,138.962 211.157,137.383L206.725,137.383L206.725,162.7L211.31,162.7L211.31,152.512C211.31,144.412 213.857,140.49 219.206,141.407L219.409,136.924Z" style="fill:black;fill-rule:nonzero;"/>
        <path d="M245.59,149.608C245.59,140.49 240.648,136.924 234.179,136.924C226.538,136.924 221.852,142.833 221.852,150.271C221.852,159.186 226.334,163.158 233.211,163.158C240.699,163.158 245.59,157.249 245.59,149.608ZM240.801,149.863C240.801,156.332 237.541,159.287 233.772,159.287C229.136,159.287 226.64,155.925 226.64,149.812C226.64,143.547 230.104,140.745 233.772,140.745C238.458,140.745 240.801,144.106 240.801,149.863Z" style="fill:black;"/>
        <path d="M278.19,125.666C276.815,125.36 275.439,125.208 274.013,125.208C267.697,125.208 264.284,128.52 264.284,135.498L264.284,137.383L259.088,137.383L259.088,140.948L264.284,140.948L264.284,162.7L268.868,162.7L268.868,140.948L275.898,140.948L275.898,137.383L268.868,137.383L268.868,135.447C268.868,130.964 270.447,128.927 274.064,128.927C275.287,128.927 276.611,129.079 277.783,129.487L278.19,125.666Z" style="fill:black;fill-rule:nonzero;"/>
        <path d="M298.553,129.385C298.553,127.856 297.381,126.635 295.853,126.635C294.325,126.635 293.102,127.856 293.102,129.385C293.102,130.913 294.325,132.085 295.853,132.085C297.381,132.085 298.553,130.913 298.553,129.385ZM288.772,129.385C288.772,127.856 287.601,126.635 286.072,126.635C284.544,126.635 283.322,127.856 283.322,129.385C283.322,130.913 284.544,132.085 286.072,132.085C287.601,132.085 288.772,130.913 288.772,129.385ZM301.507,162.7L301.507,137.383L296.974,137.383L296.974,149.558C296.974,155.161 293.917,159.389 289.74,159.389C286.429,159.389 285.41,157.301 285.41,153.734L285.41,137.383L280.877,137.383L280.877,155.11C280.877,159.593 282.66,163.209 288.467,163.209C292.797,163.209 295.904,160.866 297.381,157.352L297.483,157.402C297.228,158.88 297.075,161.223 297.075,162.7L301.507,162.7Z" style="fill:black;"/>
        <path d="M322.856,136.924C317.813,136.364 315.215,139.879 314.145,143.394L314.043,143.394C314.451,141.305 314.603,138.962 314.603,137.383L310.172,137.383L310.172,162.7L314.756,162.7L314.756,152.512C314.756,144.412 317.303,140.49 322.652,141.407L322.856,136.924Z" style="fill:black;fill-rule:nonzero;"/>
        <rect x="339.35" y="128.315" width="4.686" height="34.385" style="fill:black;fill-rule:nonzero;"/>
        <path d="M373.368,162.7L373.368,144.973C373.368,140.49 371.534,136.873 365.727,136.873C361.397,136.873 358.29,139.217 356.813,142.731L356.711,142.681C357.016,141.203 357.118,138.86 357.118,137.383L352.686,137.383L352.686,162.7L357.271,162.7L357.271,150.525C357.271,144.922 360.276,140.693 364.453,140.693C367.816,140.693 368.783,142.782 368.783,146.348L368.783,162.7L373.368,162.7Z" style="fill:black;fill-rule:nonzero;"/>
        <path d="M397.11,125.666C395.735,125.36 394.36,125.208 392.933,125.208C386.617,125.208 383.204,128.52 383.204,135.498L383.204,137.383L378.008,137.383L378.008,140.948L383.204,140.948L383.204,162.7L387.788,162.7L387.788,140.948L394.818,140.948L394.818,137.383L387.788,137.383L387.788,135.447C387.788,130.964 389.368,128.927 392.984,128.927C394.207,128.927 395.531,129.079 396.703,129.487L397.11,125.666Z" style="fill:black;fill-rule:nonzero;"/>
        <path d="M420.275,149.608C420.275,140.49 415.334,136.924 408.864,136.924C401.224,136.924 396.537,142.833 396.537,150.271C396.537,159.186 401.02,163.158 407.897,163.158C415.385,163.158 420.275,157.249 420.275,149.608ZM415.486,149.863C415.486,156.332 412.226,159.287 408.457,159.287C403.821,159.287 401.325,155.925 401.325,149.812C401.325,143.547 404.789,140.745 408.457,140.745C413.143,140.745 415.486,144.106 415.486,149.863Z" style="fill:black;"/>
        <path d="M439.333,136.924C434.29,136.364 431.692,139.879 430.622,143.394L430.52,143.394C430.928,141.305 431.08,138.962 431.08,137.383L426.649,137.383L426.649,162.7L431.233,162.7L431.233,152.512C431.233,144.412 433.78,140.49 439.129,141.407L439.333,136.924Z" style="fill:black;fill-rule:nonzero;"/>
        <path d="M480.846,162.7L480.846,145.177C480.846,139.472 478.095,136.873 473.307,136.873C468.417,136.873 465.717,140.235 464.647,142.63C464.443,140.592 463.017,136.873 457.668,136.873C453.593,136.873 450.333,139.166 448.856,142.731L448.754,142.681C449.059,141.152 449.161,138.86 449.161,137.383L444.729,137.383L444.729,162.7L449.314,162.7L449.314,150.627C449.314,144.82 452.523,140.693 456.395,140.693C459.859,140.693 460.521,143.241 460.521,146.399L460.521,162.7L465.054,162.7L465.054,150.627C465.054,144.515 468.518,140.693 472.135,140.693C475.446,140.693 476.261,142.936 476.261,146.45L476.261,162.7L480.846,162.7Z" style="fill:black;fill-rule:nonzero;"/>
        <path d="M507.449,162.7C507.398,160.51 507.347,157.81 507.347,155.415L507.347,145.329C507.347,140.286 505.258,136.873 497.974,136.873C494.612,136.873 491.556,137.688 489.111,138.707L489.569,142.63C491.76,141.305 494.816,140.541 497.21,140.541C501.387,140.541 502.762,142.426 502.762,145.94L502.762,147.825C493.186,147.825 487.532,151.34 487.532,156.893C487.532,160.917 490.384,163.158 494.561,163.158C498.738,163.158 501.947,160.765 503.17,157.657L503.272,157.657C503.017,159.083 503.017,160.917 503.017,162.7L507.449,162.7ZM502.762,151.493C502.762,155.467 500.012,159.542 495.886,159.542C493.542,159.542 492.014,158.166 492.014,156.026C492.014,153.734 493.95,151.035 502.762,151.035L502.762,151.493Z" style="fill:black;"/>
        <path d="M528.132,162.598L528.132,158.727C527.114,158.981 525.84,159.186 524.668,159.186C521.816,159.186 521.052,158.064 521.052,153.888L521.052,140.948L528.132,140.948L528.132,137.383L521.052,137.383L521.052,127.908L516.467,129.182L516.467,137.383L511.271,137.383L511.271,140.948L516.467,140.948L516.467,155.518C516.467,160.968 518.046,163.107 523.242,163.107C524.872,163.107 526.706,162.903 528.132,162.598Z" style="fill:black;fill-rule:nonzero;"/>
        <path d="M539.691,130.2C539.691,128.52 538.316,127.245 536.635,127.245C534.954,127.245 533.578,128.57 533.578,130.2C533.578,131.881 534.954,133.206 536.635,133.206C538.316,133.206 539.691,131.83 539.691,130.2ZM538.927,162.7L538.927,137.383L534.342,137.383L534.342,162.7L538.927,162.7Z" style="fill:black;"/>
        <path d="M567.395,162.7L556.901,148.946L566.631,137.383L561.078,137.383L552.164,148.487L552.164,125.514L547.579,125.514L547.579,162.7L552.164,162.7L552.164,149.659L561.537,162.7L567.395,162.7Z" style="fill:black;fill-rule:nonzero;"/>
        <path d="M454.764,101.887L454.764,0.6L442.276,0.6L442.276,32.651C438.114,32.234 434.368,31.957 430.622,31.957C408.838,31.957 394.963,46.525 394.963,70.668C394.963,90.786 403.427,103.135 420.354,103.135C431.177,103.135 439.64,97.03 443.525,87.734L443.803,87.873C442.97,91.896 442.693,98.001 442.693,101.887L454.764,101.887ZM442.276,66.228C442.276,78.299 435.894,92.868 423.407,92.868C413.001,92.868 408.145,84.404 408.145,69.558C408.145,49.717 416.886,41.809 430.067,41.809C433.952,41.809 438.114,42.225 442.276,43.335L442.276,66.228Z" style="fill:black;"/>
        <rect x="221.199" y="0.6" width="12.487" height="101.287" style="fill:black;fill-rule:nonzero;"/>
        <path d="M56.783,101.887L56.783,53.602C56.783,41.392 51.788,31.541 35.971,31.541C24.177,31.541 15.714,37.923 11.69,47.497L11.413,47.358C12.245,43.335 12.523,36.952 12.523,32.929L0.452,32.929L0.452,101.887L12.939,101.887L12.939,68.726C12.939,53.463 21.125,41.947 32.502,41.947C41.66,41.947 44.296,47.636 44.296,57.348L44.296,101.887L56.783,101.887Z" style="fill:black;fill-rule:nonzero;"/>
        <path d="M129.745,60.678C129.745,44.86 121.559,31.68 102.135,31.68C82.571,31.68 71.333,47.081 71.333,67.754C71.333,92.035 82.71,103.135 103.938,103.135C112.541,103.135 120.588,101.609 127.248,98.834L126.138,88.705C120.588,91.342 113.096,93.007 106.02,93.007C91.312,93.007 83.681,85.098 84.236,66.645L129.329,66.645C129.607,64.285 129.745,62.343 129.745,60.678ZM116.981,57.765L84.791,57.765C86.179,47.636 92.561,40.837 101.58,40.837C111.292,40.837 117.258,47.636 116.981,57.765Z" style="fill:black;"/>
        <path d="M200.836,101.887L200.836,32.929L188.487,32.929L188.487,66.089C188.487,81.352 180.162,92.868 168.785,92.868C159.767,92.868 156.992,87.179 156.992,77.467L156.992,32.929L144.643,32.929L144.643,81.213C144.643,93.423 149.499,103.273 165.317,103.273C177.11,103.273 185.574,96.892 189.597,87.317L189.875,87.456C189.181,91.48 188.765,97.862 188.765,101.887L200.836,101.887Z" style="fill:black;fill-rule:nonzero;"/>
        <path d="M305.096,101.887C304.957,95.92 304.818,88.566 304.818,82.045L304.818,54.573C304.818,40.837 299.13,31.541 279.289,31.541C270.132,31.541 261.807,33.761 255.147,36.536L256.396,47.22C262.362,43.612 270.687,41.531 277.208,41.531C288.585,41.531 292.331,46.664 292.331,56.238L292.331,61.372C266.247,61.372 250.846,70.945 250.846,86.069C250.846,97.03 258.616,103.135 269.993,103.135C281.37,103.135 290.111,96.614 293.441,88.15L293.719,88.15C293.025,92.035 293.025,97.03 293.025,101.887L305.096,101.887ZM292.331,71.361C292.331,82.185 284.839,93.284 273.6,93.284C267.218,93.284 263.056,89.538 263.056,83.71C263.056,77.467 268.328,70.113 292.331,70.113L292.331,71.361Z" style="fill:black;"/>
        <path d="M380.218,101.887L380.218,53.602C380.218,41.392 375.223,31.541 359.406,31.541C347.612,31.541 339.149,37.923 335.125,47.497L334.848,47.358C335.68,43.335 335.958,36.952 335.958,32.929L323.887,32.929L323.887,101.887L336.374,101.887L336.374,68.726C336.374,53.463 344.56,41.947 355.937,41.947C365.095,41.947 367.731,47.636 367.731,57.348L367.731,101.887L380.218,101.887Z" style="fill:black;fill-rule:nonzero;"/>
    </g>
</svg>
