<?xml version="1.0" encoding="utf-8"?>
<!-- Generator: Adobe Illustrator 22.1.0, SVG Export Plug-In . SVG Version: 6.00 Build 0)  -->
<svg version="1.1" id="Layer_1" xmlns="http://www.w3.org/2000/svg" xmlns:xlink="http://www.w3.org/1999/xlink" x="0px" y="0px"
	 viewBox="0 0 356 100" style="enable-background:new 0 0 356 100;" xml:space="preserve">
<style type="text/css">
	.st0{fill:#FFFFFF;}
</style>
<g>
	<path class="st0" d="M78.7,10H21.3C15.1,10,10,15.1,10,21.3v57.4C10,84.9,15.1,90,21.3,90h57.4C84.9,90,90,84.9,90,78.7V21.3
		C90,15.1,84.9,10,78.7,10z M50.4,73c-3.5,3.4-7.8,5.2-12.9,5.2c-3.9,0-8.2-1.2-12.7-3.5v-13c4.1,3.8,7.9,5.7,11.5,5.7
		c1.8,0,3.4-0.6,4.7-1.8c1.3-1.2,2-2.6,2-4.3c0-1.4-0.5-2.6-1.4-3.6c-1-1.1-2.7-2.3-5.4-3.6c-3.7-1.8-6.5-3.9-8.5-6.1
		c-2-2.2-3-5.1-3-8.5c0-4.4,1.5-8.1,4.6-11.1c3.1-3,7.1-4.5,12.2-4.5c3.5,0,7.1,0.9,10.8,2.8v12.6c-3.3-3.2-6.5-4.8-9.6-4.8
		c-1.5,0-2.8,0.5-3.9,1.4c-1.1,0.9-1.7,2-1.7,3.3c0,1.3,0.5,2.3,1.4,3.2c0.9,0.9,2.5,1.9,4.9,3c3.9,1.8,6.9,3.8,9,6
		c2,2.3,3.1,5.4,3.1,9.2C55.6,65.4,53.9,69.6,50.4,73z M73.9,77.4h-12v-36c0,0,1.6,2.2,6.1,2.2c4.5,0,5.9-2.2,5.9-2.2V77.4z
		 M72.5,34.7c-1.3,1.2-2.8,1.8-4.5,1.8c-1.8,0-3.3-0.6-4.6-1.9c-1.2-1.3-1.9-2.8-1.9-4.5c0-1.8,0.6-3.3,1.9-4.5
		c1.3-1.2,2.8-1.9,4.5-1.9c1.6,0,3.1,0.6,4.5,1.8c1.3,1.2,2,2.7,2,4.6C74.4,32,73.8,33.5,72.5,34.7z"/>
</g>
<g>
	<path class="st0" d="M123,26.5c-0.5-0.6-1.2-1.2-2.1-1.6s-1.8-0.6-2.7-0.6c-0.5,0-1.1,0.1-1.6,0.2c-0.5,0.1-1,0.3-1.5,0.6
		c-0.4,0.3-0.8,0.6-1.1,1.1c-0.3,0.4-0.4,1-0.4,1.6c0,0.6,0.1,1.1,0.4,1.5c0.2,0.4,0.6,0.8,1,1.1c0.4,0.3,0.9,0.5,1.5,0.8
		c0.6,0.2,1.3,0.4,2,0.7c0.8,0.3,1.7,0.6,2.6,0.9c0.9,0.3,1.7,0.8,2.4,1.3c0.7,0.6,1.3,1.3,1.8,2.1c0.5,0.8,0.7,1.9,0.7,3.2
		c0,1.4-0.3,2.6-0.8,3.6c-0.5,1-1.2,1.9-2,2.6c-0.8,0.7-1.8,1.2-3,1.5s-2.3,0.5-3.6,0.5c-1.7,0-3.3-0.3-4.9-0.9
		c-1.6-0.6-2.9-1.5-3.9-2.7l3.3-3.1c0.6,0.9,1.5,1.6,2.5,2.1c1.1,0.5,2.1,0.8,3.1,0.8c0.5,0,1.1-0.1,1.6-0.2
		c0.6-0.1,1.1-0.4,1.5-0.7c0.4-0.3,0.8-0.7,1.1-1.2s0.4-1.1,0.4-1.8c0-0.7-0.2-1.2-0.5-1.7c-0.3-0.4-0.7-0.8-1.3-1.2
		c-0.5-0.3-1.2-0.6-1.9-0.9c-0.7-0.2-1.5-0.5-2.3-0.8c-0.8-0.2-1.6-0.5-2.3-0.9c-0.8-0.3-1.5-0.8-2.1-1.3c-0.6-0.6-1.1-1.2-1.5-2.1
		c-0.4-0.8-0.6-1.8-0.6-3c0-1.3,0.3-2.4,0.8-3.4c0.5-0.9,1.3-1.7,2.1-2.3c0.9-0.6,1.9-1.1,3-1.4c1.1-0.3,2.3-0.5,3.4-0.5
		c1.3,0,2.6,0.2,4,0.7c1.3,0.5,2.5,1.2,3.5,2.1L123,26.5z"/>
	<path class="st0" d="M150.9,28.9c1.1,0,2.1,0.2,2.9,0.6c0.8,0.4,1.5,0.9,2,1.6c0.5,0.7,0.9,1.4,1.1,2.3s0.4,1.7,0.4,2.6v10.9H153
		v-9.7c0-0.5,0-1-0.1-1.6c-0.1-0.6-0.2-1.1-0.5-1.5c-0.2-0.4-0.6-0.8-1-1.1c-0.4-0.3-1-0.4-1.7-0.4c-0.7,0-1.3,0.1-1.7,0.4
		c-0.5,0.3-0.9,0.7-1.2,1.1c-0.3,0.5-0.5,1-0.7,1.5c-0.1,0.6-0.2,1.1-0.2,1.7v9.5h-4.4V36.3c0-1.1-0.3-2-0.8-2.7s-1.3-1.1-2.5-1.1
		c-0.7,0-1.2,0.1-1.7,0.4c-0.5,0.3-0.9,0.6-1.2,1.1c-0.3,0.4-0.5,0.9-0.7,1.5c-0.2,0.6-0.2,1.1-0.2,1.7v9.6h-4.4V29.4h4.2v2.8h0.1
		c0.2-0.4,0.5-0.8,0.8-1.2c0.3-0.4,0.7-0.7,1.2-1.1c0.4-0.3,1-0.6,1.5-0.7c0.6-0.2,1.2-0.3,1.9-0.3c1.4,0,2.5,0.3,3.4,0.9
		c0.9,0.6,1.6,1.4,2.1,2.4c0.6-1.1,1.4-1.9,2.3-2.5C148.5,29.2,149.6,28.9,150.9,28.9z"/>
	<path class="st0" d="M172.9,44.7h-0.1c-0.4,0.8-1.1,1.4-2.1,1.9c-1,0.5-2.1,0.7-3.3,0.7c-0.7,0-1.4-0.1-2.2-0.3
		c-0.8-0.2-1.5-0.5-2.1-0.9c-0.6-0.4-1.2-1-1.6-1.7c-0.4-0.7-0.6-1.5-0.6-2.6c0-1.3,0.4-2.4,1.1-3.1c0.7-0.8,1.7-1.4,2.9-1.8
		c1.2-0.4,2.5-0.7,3.9-0.8c1.4-0.1,2.8-0.2,4.2-0.2v-0.4c0-1.1-0.4-1.9-1.2-2.4c-0.8-0.5-1.7-0.8-2.8-0.8c-0.9,0-1.8,0.2-2.7,0.6
		c-0.9,0.4-1.6,0.9-2.1,1.4l-2.3-2.7c1-0.9,2.1-1.6,3.4-2.1c1.3-0.5,2.6-0.7,3.9-0.7c1.6,0,2.8,0.2,3.8,0.7c1,0.4,1.8,1,2.4,1.7
		c0.6,0.7,1,1.5,1.2,2.4c0.2,0.9,0.3,1.7,0.3,2.6v10.6h-4.1V44.7z M172.8,38.9h-1c-0.7,0-1.4,0-2.2,0.1c-0.8,0.1-1.5,0.2-2.1,0.4
		c-0.7,0.2-1.2,0.5-1.6,0.9c-0.4,0.4-0.7,0.9-0.7,1.5c0,0.4,0.1,0.8,0.3,1c0.2,0.3,0.4,0.5,0.7,0.7c0.3,0.2,0.6,0.3,1,0.4
		s0.7,0.1,1.1,0.1c1.5,0,2.6-0.4,3.4-1.2s1.2-1.9,1.2-3.3V38.9z"/>
	<path class="st0" d="M181.7,21.3h4.4v25.6h-4.4V21.3z"/>
	<path class="st0" d="M190.9,21.3h4.4v25.6h-4.4V21.3z"/>
	<path class="st0" d="M109.8,54.2h4.6V79h-4.6V54.2z"/>
	<path class="st0" d="M140.3,61c1.1,0,2.1,0.2,2.9,0.6c0.8,0.4,1.5,0.9,2,1.6c0.5,0.7,0.9,1.4,1.1,2.3c0.2,0.8,0.4,1.7,0.4,2.6V79
		h-4.4v-9.7c0-0.5,0-1-0.1-1.6c-0.1-0.6-0.2-1.1-0.5-1.5c-0.2-0.4-0.6-0.8-1-1.1c-0.4-0.3-1-0.4-1.7-0.4c-0.7,0-1.3,0.1-1.7,0.4
		c-0.5,0.3-0.9,0.7-1.2,1.1c-0.3,0.5-0.5,1-0.7,1.5c-0.1,0.6-0.2,1.1-0.2,1.7V79h-4.4V68.5c0-1.1-0.3-2-0.8-2.7
		c-0.5-0.7-1.3-1.1-2.5-1.1c-0.7,0-1.2,0.1-1.7,0.4c-0.5,0.3-0.9,0.6-1.2,1.1s-0.5,0.9-0.7,1.5c-0.2,0.6-0.2,1.1-0.2,1.7V79h-4.4
		V61.5h4.2v2.8h0.1c0.2-0.4,0.5-0.8,0.8-1.2c0.3-0.4,0.7-0.7,1.2-1.1c0.4-0.3,1-0.6,1.5-0.7c0.6-0.2,1.2-0.3,1.9-0.3
		c1.4,0,2.5,0.3,3.4,0.9c0.9,0.6,1.6,1.4,2.1,2.4c0.6-1.1,1.4-1.9,2.3-2.5C137.9,61.3,139,61,140.3,61z"/>
	<path class="st0" d="M155.6,61.5V64h0.1c0.2-0.3,0.5-0.7,0.9-1c0.4-0.4,0.8-0.7,1.3-0.9c0.5-0.3,1.1-0.5,1.7-0.7
		c0.6-0.2,1.4-0.3,2.2-0.3c1.2,0,2.4,0.2,3.4,0.7c1,0.5,1.9,1.1,2.7,1.9c0.8,0.8,1.3,1.8,1.7,2.9c0.4,1.1,0.6,2.3,0.6,3.6
		c0,1.3-0.2,2.5-0.6,3.6c-0.4,1.1-1,2.1-1.7,2.9c-0.7,0.8-1.6,1.5-2.7,2c-1.1,0.5-2.3,0.7-3.6,0.7c-1.2,0-2.4-0.3-3.4-0.8
		c-1-0.5-1.8-1.2-2.4-2.1h-0.1v11.1h-4.4V61.5H155.6z M165.8,70.2c0-0.7-0.1-1.4-0.3-2c-0.2-0.7-0.5-1.3-0.9-1.8
		c-0.4-0.5-0.9-1-1.6-1.3c-0.6-0.3-1.4-0.5-2.2-0.5c-0.8,0-1.5,0.2-2.1,0.5c-0.6,0.3-1.2,0.8-1.6,1.3c-0.4,0.5-0.8,1.1-1,1.8
		c-0.2,0.7-0.3,1.4-0.3,2c0,0.7,0.1,1.4,0.3,2c0.2,0.7,0.6,1.3,1,1.8c0.4,0.5,1,1,1.6,1.3c0.6,0.3,1.3,0.5,2.1,0.5
		c0.8,0,1.6-0.2,2.2-0.5c0.6-0.3,1.2-0.8,1.6-1.3c0.4-0.5,0.7-1.1,0.9-1.8C165.7,71.6,165.8,70.9,165.8,70.2z"/>
	<path class="st0" d="M174.1,61.5h4.2v2.9h0.1c0.5-1,1.2-1.8,2-2.5c0.9-0.6,1.9-0.9,3.1-0.9c0.2,0,0.4,0,0.5,0c0.2,0,0.4,0,0.5,0.1
		v4c-0.3-0.1-0.5-0.1-0.7-0.1c-0.2,0-0.4,0-0.6,0c-1,0-1.8,0.2-2.4,0.5c-0.6,0.4-1.1,0.8-1.4,1.3c-0.3,0.5-0.6,1-0.7,1.6
		c-0.1,0.5-0.2,1-0.2,1.3V79h-4.4V61.5z"/>
	<path class="st0" d="M185.9,70.2c0-1.4,0.2-2.6,0.7-3.8c0.5-1.1,1.2-2.1,2-2.9c0.8-0.8,1.9-1.4,3-1.9c1.2-0.4,2.4-0.7,3.7-0.7
		c1.3,0,2.5,0.2,3.7,0.7c1.2,0.4,2.2,1.1,3,1.9c0.8,0.8,1.5,1.8,2,2.9s0.7,2.4,0.7,3.8c0,1.4-0.2,2.6-0.7,3.8
		c-0.5,1.1-1.2,2.1-2,2.9s-1.9,1.5-3,1.9c-1.2,0.5-2.4,0.7-3.7,0.7c-1.3,0-2.5-0.2-3.7-0.7c-1.2-0.5-2.2-1.1-3-1.9
		c-0.8-0.8-1.5-1.8-2-2.9C186.2,72.9,185.9,71.6,185.9,70.2z M190.4,70.2c0,0.7,0.1,1.4,0.3,2c0.2,0.7,0.5,1.3,0.9,1.8
		c0.4,0.5,0.9,1,1.6,1.3c0.6,0.3,1.4,0.5,2.3,0.5s1.6-0.2,2.3-0.5c0.6-0.3,1.2-0.8,1.6-1.3c0.4-0.5,0.7-1.1,0.9-1.8
		c0.2-0.7,0.3-1.4,0.3-2c0-0.7-0.1-1.4-0.3-2c-0.2-0.7-0.5-1.3-0.9-1.8c-0.4-0.5-0.9-1-1.6-1.3c-0.6-0.3-1.4-0.5-2.3-0.5
		s-1.6,0.2-2.3,0.5c-0.6,0.3-1.2,0.8-1.6,1.3c-0.4,0.5-0.7,1.1-0.9,1.8C190.5,68.9,190.4,69.5,190.4,70.2z"/>
	<path class="st0" d="M205.6,61.5h4.8l4.6,12.7h0.1l4.6-12.7h4.6l-7,17.5h-4.7L205.6,61.5z"/>
	<path class="st0" d="M242.7,70.5c0,0.2,0,0.4,0,0.6c0,0.2,0,0.4,0,0.6h-13.3c0,0.6,0.2,1.2,0.5,1.7c0.3,0.5,0.6,1,1.1,1.3
		c0.5,0.4,1,0.7,1.6,0.9c0.6,0.2,1.2,0.3,1.8,0.3c1.1,0,2-0.2,2.8-0.6c0.8-0.4,1.4-1,1.9-1.7l2.9,2.3c-1.7,2.3-4.2,3.5-7.5,3.5
		c-1.4,0-2.6-0.2-3.7-0.6c-1.1-0.4-2.1-1-3-1.8c-0.8-0.8-1.5-1.7-2-2.9c-0.5-1.1-0.7-2.4-0.7-3.8c0-1.4,0.2-2.7,0.7-3.8
		c0.5-1.2,1.1-2.1,1.9-2.9c0.8-0.8,1.8-1.4,2.9-1.9c1.1-0.4,2.3-0.7,3.7-0.7c1.2,0,2.3,0.2,3.4,0.6c1,0.4,1.9,1,2.7,1.8
		c0.8,0.8,1.3,1.8,1.8,2.9C242.5,67.5,242.7,68.9,242.7,70.5z M238.3,68.5c0-0.6-0.1-1.1-0.2-1.6c-0.2-0.5-0.4-1-0.7-1.3
		c-0.3-0.4-0.8-0.7-1.3-0.9c-0.5-0.2-1.1-0.3-1.8-0.3c-1.3,0-2.4,0.4-3.3,1.2c-0.9,0.8-1.4,1.8-1.5,3H238.3z"/>
	<path class="st0" d="M267.4,61c1.1,0,2.1,0.2,2.9,0.6c0.8,0.4,1.5,0.9,2,1.6c0.5,0.7,0.9,1.4,1.1,2.3c0.2,0.8,0.4,1.7,0.4,2.6V79
		h-4.4v-9.7c0-0.5,0-1-0.1-1.6c-0.1-0.6-0.2-1.1-0.5-1.5c-0.2-0.4-0.6-0.8-1-1.1c-0.4-0.3-1-0.4-1.7-0.4c-0.7,0-1.3,0.1-1.7,0.4
		c-0.5,0.3-0.9,0.7-1.2,1.1s-0.5,1-0.7,1.5c-0.1,0.6-0.2,1.1-0.2,1.7V79h-4.4V68.5c0-1.1-0.3-2-0.8-2.7c-0.5-0.7-1.3-1.1-2.5-1.1
		c-0.7,0-1.2,0.1-1.7,0.4c-0.5,0.3-0.9,0.6-1.2,1.1c-0.3,0.4-0.5,0.9-0.7,1.5c-0.2,0.6-0.2,1.1-0.2,1.7V79h-4.4V61.5h4.2v2.8h0.1
		c0.2-0.4,0.5-0.8,0.8-1.2c0.3-0.4,0.7-0.7,1.2-1.1c0.4-0.3,1-0.6,1.5-0.7c0.6-0.2,1.2-0.3,1.9-0.3c1.4,0,2.5,0.3,3.4,0.9
		c0.9,0.6,1.6,1.4,2.1,2.4c0.6-1.1,1.4-1.9,2.3-2.5C264.9,61.3,266.1,61,267.4,61z"/>
	<path class="st0" d="M295.2,70.5c0,0.2,0,0.4,0,0.6c0,0.2,0,0.4,0,0.6h-13.3c0,0.6,0.2,1.2,0.5,1.7c0.3,0.5,0.6,1,1.1,1.3
		c0.5,0.4,1,0.7,1.6,0.9c0.6,0.2,1.2,0.3,1.8,0.3c1.1,0,2-0.2,2.8-0.6c0.8-0.4,1.4-1,1.9-1.7l2.9,2.3c-1.7,2.3-4.2,3.5-7.5,3.5
		c-1.4,0-2.6-0.2-3.7-0.6c-1.1-0.4-2.1-1-3-1.8c-0.8-0.8-1.5-1.7-2-2.9c-0.5-1.1-0.7-2.4-0.7-3.8c0-1.4,0.2-2.7,0.7-3.8
		c0.5-1.2,1.1-2.1,1.9-2.9c0.8-0.8,1.8-1.4,2.9-1.9c1.1-0.4,2.3-0.7,3.7-0.7c1.2,0,2.3,0.2,3.4,0.6c1,0.4,1.9,1,2.7,1.8
		c0.8,0.8,1.3,1.8,1.8,2.9C295,67.5,295.2,68.9,295.2,70.5z M290.8,68.5c0-0.6-0.1-1.1-0.2-1.6c-0.2-0.5-0.4-1-0.7-1.3
		c-0.3-0.4-0.8-0.7-1.3-0.9c-0.5-0.2-1.1-0.3-1.8-0.3c-1.3,0-2.4,0.4-3.3,1.2c-0.9,0.8-1.4,1.8-1.5,3H290.8z"/>
	<path class="st0" d="M299,61.5h4.2v2.8h0.1c0.4-0.9,1.1-1.6,2-2.3c1-0.7,2.1-1,3.4-1c1.1,0,2.1,0.2,2.9,0.6c0.8,0.4,1.5,0.9,2,1.6
		c0.5,0.7,0.9,1.4,1.1,2.3c0.2,0.8,0.4,1.7,0.4,2.6V79h-4.4v-9.7c0-0.5,0-1-0.1-1.6c-0.1-0.6-0.2-1.1-0.5-1.5
		c-0.2-0.4-0.6-0.8-1-1.1c-0.4-0.3-1-0.4-1.7-0.4s-1.3,0.1-1.8,0.4c-0.5,0.3-0.9,0.6-1.3,1.1s-0.6,0.9-0.7,1.5
		c-0.2,0.6-0.3,1.1-0.3,1.7V79H299V61.5z"/>
	<path class="st0" d="M317.3,65v-3.5h3.1v-5.1h4.3v5.1h4.4V65h-4.4v8.1c0,0.8,0.1,1.4,0.4,1.9c0.3,0.5,0.9,0.8,1.9,0.8
		c0.3,0,0.6,0,0.9-0.1c0.3-0.1,0.6-0.2,0.9-0.3l0.1,3.4c-0.4,0.1-0.9,0.3-1.4,0.3c-0.5,0.1-1,0.1-1.5,0.1c-1.2,0-2.1-0.2-2.8-0.5
		c-0.7-0.3-1.3-0.8-1.7-1.3c-0.4-0.6-0.7-1.2-0.9-2c-0.2-0.7-0.2-1.5-0.2-2.4V65H317.3z"/>
	<path class="st0" d="M342.3,66.2c-0.4-0.5-0.9-1-1.6-1.3c-0.7-0.4-1.4-0.6-2.2-0.6c-0.7,0-1.3,0.1-1.9,0.4
		c-0.6,0.3-0.9,0.8-0.9,1.5c0,0.7,0.3,1.2,1,1.4c0.6,0.3,1.6,0.6,2.8,0.9c0.7,0.1,1.3,0.3,2,0.6c0.7,0.2,1.3,0.6,1.8,1
		c0.5,0.4,1,0.9,1.3,1.5c0.3,0.6,0.5,1.3,0.5,2.2c0,1.1-0.2,2-0.6,2.7s-0.9,1.3-1.6,1.8c-0.7,0.5-1.4,0.8-2.3,1s-1.8,0.3-2.7,0.3
		c-1.4,0-2.7-0.2-4-0.7s-2.4-1.2-3.2-2.1l2.9-2.7c0.5,0.6,1.1,1.2,1.9,1.6c0.8,0.4,1.6,0.6,2.6,0.6c0.3,0,0.6,0,1-0.1
		s0.6-0.2,0.9-0.3c0.3-0.2,0.5-0.4,0.7-0.6c0.2-0.3,0.3-0.6,0.3-1c0-0.7-0.3-1.2-1-1.6c-0.7-0.3-1.7-0.6-3-0.9
		c-0.7-0.1-1.3-0.3-1.9-0.6c-0.6-0.2-1.2-0.5-1.7-0.9c-0.5-0.4-0.9-0.8-1.2-1.4c-0.3-0.6-0.4-1.2-0.4-2.1c0-1,0.2-1.8,0.6-2.5
		c0.4-0.7,0.9-1.3,1.6-1.7c0.7-0.4,1.4-0.8,2.2-1c0.8-0.2,1.7-0.3,2.5-0.3c1.3,0,2.5,0.2,3.7,0.7c1.2,0.4,2.2,1.1,2.9,2L342.3,66.2z
		"/>
</g>
</svg>
