<?xml version="1.0" standalone="no"?>
<!DOCTYPE svg PUBLIC "-//W3C//DTD SVG 1.1//EN" "http://www.w3.org/Graphics/SVG/1.1/DTD/svg11.dtd">
<svg width="100%" height="100%" viewBox="0 0 233 77" version="1.1" xmlns="http://www.w3.org/2000/svg" xmlns:xlink="http://www.w3.org/1999/xlink" xml:space="preserve" style="fill-rule:evenodd;clip-rule:evenodd;stroke-linejoin:round;stroke-miterlimit:1.41421;">
    <path d="M125.378,22.41L130.867,22.41L130.867,33.109C131.238,32.736 131.951,32.318 133.006,31.852C134.06,31.387 135.331,31.154 136.82,31.154C138.401,31.154 139.805,31.451 141.029,32.039C142.253,32.627 143.3,33.419 144.168,34.41C145.036,35.403 145.696,36.582 146.146,37.945C146.595,39.31 146.819,40.752 146.819,42.271C146.819,43.915 146.532,45.457 145.959,46.899C145.384,48.341 144.565,49.598 143.495,50.667C142.424,51.735 141.129,52.589 139.61,53.225C138.091,53.86 136.096,54.178 134.206,54.178C132.321,54.178 129.763,54.178 125.378,53.434L125.378,22.41L125.378,22.41ZM130.867,48.968C131.302,49.124 131.75,49.239 132.214,49.318C132.68,49.396 133.409,49.434 134.401,49.434C135.518,49.434 136.495,49.239 137.332,48.853C138.168,48.466 138.881,47.946 139.471,47.294C140.06,46.643 140.501,45.892 140.797,45.039C141.091,44.186 141.238,43.31 141.238,42.412C141.238,41.573 141.138,40.768 140.936,39.992C140.733,39.216 140.417,38.527 139.983,37.922C139.548,37.318 138.998,36.837 138.331,36.48C137.665,36.124 136.867,35.946 135.935,35.946C134.263,35.946 132.997,36.372 132.146,37.224C131.293,38.078 130.867,39.248 130.867,40.736L130.867,48.968ZM191.007,22.41L196.496,22.41L196.496,33.109C196.868,32.736 197.581,32.318 198.636,31.852C199.689,31.387 200.962,31.154 202.449,31.154C204.03,31.154 205.433,31.451 206.658,32.039C207.883,32.627 208.93,33.419 209.798,34.41C210.666,35.403 211.325,36.582 211.775,37.945C212.224,39.31 212.449,40.752 212.449,42.271C212.449,43.915 212.162,45.457 211.589,46.899C211.014,48.341 210.194,49.598 209.124,50.667C208.054,51.735 206.759,52.589 205.24,53.225C203.72,53.86 201.726,54.178 199.834,54.178C197.949,54.178 195.392,54.178 191.007,53.434L191.007,22.41L191.007,22.41ZM196.496,48.968C196.93,49.124 197.379,49.239 197.844,49.318C198.31,49.396 199.038,49.434 200.031,49.434C201.147,49.434 202.124,49.239 202.96,48.853C203.797,48.466 204.511,47.946 205.1,47.294C205.69,46.643 206.13,45.892 206.425,45.039C206.721,44.186 206.868,43.31 206.868,42.412C206.868,41.573 206.768,40.768 206.566,39.992C206.363,39.216 206.046,38.527 205.611,37.922C205.178,37.318 204.628,36.837 203.96,36.48C203.295,36.124 202.497,35.946 201.565,35.946C199.892,35.946 198.627,36.372 197.776,37.224C196.921,38.078 196.496,39.248 196.496,40.736L196.496,48.968ZM96.216,41.992C96.216,43.73 96.495,45.342 97.053,46.83C97.611,48.318 98.431,49.613 99.517,50.713C100.603,51.814 101.927,52.682 103.494,53.318C105.06,53.953 106.85,54.272 108.867,54.272C110.881,54.272 112.672,53.953 114.239,53.318C115.804,52.682 117.13,51.814 118.215,50.713C119.3,49.613 120.123,48.318 120.68,46.83C121.239,45.342 121.519,43.73 121.519,41.992L121.519,22.411L115.657,22.411L115.657,40.97C115.657,42.149 115.542,43.21 115.308,44.155C115.075,45.101 114.697,45.907 114.169,46.573C113.642,47.241 112.944,47.753 112.076,48.108C111.208,48.466 110.138,48.643 108.867,48.643C107.595,48.643 106.525,48.466 105.657,48.108C104.789,47.753 104.092,47.241 103.565,46.573C103.037,45.907 102.657,45.101 102.424,44.155C102.192,43.21 102.075,42.149 102.075,40.97L102.075,22.411L96.216,22.411L96.216,41.992ZM149.797,22.41L155.285,22.41L155.285,27.898L149.797,27.898L149.797,22.41ZM149.797,31.619L155.285,31.619L155.285,53.434L149.797,53.434L149.797,31.619ZM159.144,53.434L164.633,53.434L164.633,22.411L159.144,22.411L159.144,53.434ZM181.892,51.387C181.304,52.101 180.405,52.736 179.195,53.296C177.987,53.853 176.637,54.132 175.149,54.132C174.248,54.132 173.358,53.993 172.475,53.713C171.59,53.434 170.784,53.009 170.056,52.433C169.326,51.861 168.738,51.124 168.288,50.225C167.838,49.327 167.613,48.272 167.613,47.062C167.613,45.822 167.846,44.714 168.312,43.737C168.777,42.761 169.427,41.939 170.265,41.272C171.103,40.605 172.109,40.102 173.288,39.76C174.466,39.419 175.768,39.249 177.195,39.249C177.629,39.249 178.109,39.257 178.637,39.272C179.164,39.287 179.675,39.31 180.172,39.341C180.73,39.373 181.304,39.404 181.892,39.434L181.892,38.922C181.892,37.838 181.458,36.984 180.591,36.364C179.722,35.744 178.59,35.434 177.195,35.434C175.644,35.434 174.404,35.636 173.475,36.039C172.544,36.442 171.723,36.876 171.009,37.341L168.498,33.621C168.93,33.311 169.427,32.992 169.985,32.667C170.543,32.342 171.195,32.048 171.939,31.783C172.684,31.52 173.544,31.303 174.52,31.131C175.497,30.963 176.637,30.877 177.939,30.877C179.335,30.877 180.598,31.07 181.73,31.458C182.862,31.846 183.831,32.388 184.638,33.086C185.443,33.783 186.063,34.621 186.498,35.598C186.932,36.574 187.148,37.636 187.148,38.783L187.148,53.434L182.033,53.434L181.892,51.387ZM181.892,43.574C181.335,43.544 180.792,43.512 180.265,43.481C179.83,43.45 179.373,43.427 178.892,43.411C178.411,43.396 178.002,43.388 177.66,43.388C175.894,43.388 174.652,43.737 173.939,44.434C173.226,45.132 172.87,45.93 172.87,46.83C172.87,47.76 173.202,48.489 173.87,49.016C174.536,49.544 175.521,49.806 176.823,49.806C177.475,49.806 178.102,49.698 178.707,49.48C179.312,49.265 179.847,48.969 180.311,48.597C180.777,48.225 181.157,47.791 181.452,47.295C181.745,46.798 181.892,46.272 181.892,45.714L181.892,43.574L181.892,43.574ZM213.823,50.783C214.816,51.9 216.134,52.745 217.777,53.318C219.422,53.891 221.266,54.179 223.312,54.179C224.583,54.179 225.785,54.016 226.917,53.69C228.048,53.364 229.041,52.908 229.894,52.318C230.747,51.728 231.42,51.008 231.917,50.155C232.413,49.303 232.662,48.35 232.662,47.295C232.662,46.242 232.49,45.335 232.15,44.574C231.808,43.814 231.32,43.156 230.684,42.597C230.049,42.04 229.289,41.574 228.405,41.202C227.521,40.83 226.522,40.52 225.405,40.272C223.607,39.837 222.282,39.427 221.428,39.039C220.575,38.652 220.148,38.117 220.148,37.434C220.148,36.876 220.405,36.404 220.917,36.016C221.428,35.628 222.336,35.434 223.638,35.434C224.941,35.434 226.072,35.613 227.034,35.97C227.994,36.326 228.769,36.721 229.359,37.156L232.197,33.296C231.11,32.489 229.894,31.885 228.544,31.481C227.196,31.078 225.561,30.877 223.638,30.877C222.553,30.877 221.475,31.031 220.405,31.342C219.335,31.651 218.375,32.094 217.522,32.667C216.668,33.241 215.979,33.955 215.452,34.806C214.925,35.659 214.662,36.629 214.662,37.714C214.662,38.767 214.887,39.676 215.336,40.435C215.786,41.194 216.359,41.846 217.057,42.388C217.754,42.931 218.505,43.358 219.312,43.667C220.119,43.978 220.893,44.225 221.638,44.411C222.848,44.691 223.808,44.954 224.522,45.202C225.235,45.45 225.793,45.698 226.196,45.946C226.599,46.195 226.862,46.45 226.986,46.714C227.111,46.977 227.173,47.265 227.173,47.574C227.173,48.288 226.816,48.8 226.103,49.108C225.39,49.42 224.445,49.575 223.266,49.575C221.932,49.575 220.746,49.35 219.708,48.899C218.669,48.45 217.809,47.884 217.127,47.202L213.823,50.783ZM38.342,0C17.166,0 0.001,17.167 0.001,38.341C0.001,59.516 17.166,76.683 38.342,76.683C59.516,76.683 76.682,59.516 76.682,38.341C76.682,17.167 59.516,0 38.342,0M25.771,49.236C19.763,49.236 14.877,44.349 14.877,38.341C14.877,32.334 19.763,27.446 25.771,27.446C31.779,27.446 36.665,32.334 36.665,38.341C36.665,44.349 31.779,49.236 25.771,49.236M45.046,49.204L40.855,49.204L40.855,27.415L45.046,27.415L45.046,49.204ZM53.426,49.204L49.237,49.204L49.237,27.415L53.426,27.415L53.426,49.204ZM61.807,49.204L57.616,49.204L57.616,27.415L61.807,27.415L61.807,49.204ZM25.771,31.579C22.042,31.579 19.008,34.613 19.008,38.341C19.008,42.069 22.042,45.102 25.771,45.102C29.499,45.102 32.533,42.069 32.533,38.341C32.533,34.613 29.499,31.579 25.771,31.579" style="fill:black;fill-rule:nonzero;"/>
</svg>
