<?xml version="1.0" encoding="UTF-8" standalone="no"?>
<svg 
  xmlns:dc="http://purl.org/dc/elements/1.1/" 
  xmlns:cc="http://creativecommons.org/ns#" 
  xmlns:rdf="http://www.w3.org/1999/02/22-rdf-syntax-ns#" 
  xmlns:svg="http://www.w3.org/2000/svg" 
  xmlns="http://www.w3.org/2000/svg" viewBox="0 0 377.94666 49.52" height="49.52" width="377.94666" xml:space="preserve" id="svg2" version="1.1">
  <metadata id="metadata8">
    <rdf:RDF>
      <cc:Work rdf:about="">
        <dc:format>image/svg+xml</dc:format>
        <dc:type rdf:resource="http://purl.org/dc/dcmitype/StillImage" />
      </cc:Work>
    </rdf:RDF>
  </metadata>
  <defs id="defs6" />
  <g transform="matrix(1.3333333,0,0,-1.3333333,0,49.52)" id="g10">
    <g transform="scale(0.1)" id="g12">
      <path id="path14" style="fill:#ffffff;fill-opacity:0;fill-rule:nonzero;stroke:none" d="M 0,0 H 371.406 V 371.41 H 0 V 0" />
      <path id="path16" style="fill:#fff;fill-opacity:1;fill-rule:nonzero;stroke:none" d="m 308.953,148.641 -160.34,160.343 h 160.34 z m -0.711,-49.8012 c 0,11.2192 -7.871,16.1722 -18.262,16.1722 H 269.566 V 62.4609 h 13.657 V 82.668 h 0.136 l 12.903,-20.2071 h 17.004 l -16.524,21.5313 c 7.457,1.3281 11.5,7.6016 11.5,14.8476 z m -14.219,-0.832 c 0,-5.7226 -5.015,-6.5547 -9.476,-6.5547 h -1.324 v 13.1059 h 1.324 c 4.461,0 9.476,-0.836 9.476,-6.5512 z m -37.535,5.4372 v 11.567 H 223.539 V 62.4609 h 32.949 v 11.5625 h -19.281 v 9.0625 h 18.445 v 11.5704 h -18.445 v 8.7887 z m -59.039,11.821 V 86.6797 c 0,-6.8281 -0.765,-14.2774 -9.133,-14.2774 -8.367,0 -9.132,7.4493 -9.132,14.2774 V 115.266 H 166.16 V 84.8047 c 0,-6.7578 0.27,-13.457 5.25,-18.5352 4.18,-4.3281 11.063,-5.8593 16.906,-5.8593 5.84,0 12.719,1.5312 16.911,5.8593 4.972,5.0782 5.242,11.7774 5.242,18.5352 V 115.266 Z M 160.512,62.4609 141.328,115.012 H 126.406 L 106.801,62.4609 h 14.492 l 3.633,9.1329 h 17.609 l 3.41,-9.1329 z M 139.746,82.043 h -11.969 l 5.801,17.9453 h 0.442 z m -47.9765,8.5703 c 4.25,2.1601 7.6172,5.9961 7.6172,10.7347 0,10.039 -6.2773,13.664 -15.6172,13.664 H 62.4219 V 62.4609 h 21.0547 c 9.6132,0 19.0274,3.6133 19.0274,14.6368 0,7.3164 -3.2071,12.4062 -10.7345,13.3789 z m -4.9336,8.8594 c -0.0312,-4.461 -2.9296,-5.2618 -7.3828,-5.086 h -3.3672 v 10.1723 h 2.8125 c 5.1602,0 7.9766,0.097 7.9375,-5.0863 z M 88.707,78.4844 c 0,-5.7813 -3.6132,-5.7617 -10.875,-5.5742 h -1.7461 v 11.289 h 1.3985 c 6.6484,0 11.2226,0.4571 11.2226,-5.7148 z M 339.125,339.137 H 32.2773 V 32.2852 H 339.125 Z M 0,371.41 H 371.406 V 0 H 0 Z M 2691.35,266.543 2638.03,145.145 h 106.66 z M 2622.5,110.906 2588.26,35.6836 h -40.19 l 143.28,312.8514 143.3,-312.8514 h -40.21 l -34.23,75.2224 z M 2511.85,35.6836 h -37.41 V 335.797 h 37.41 z m -288.56,34.2383 h 13.14 c 19.1,0 37.27,1.914 54.53,5.7617 17.24,3.8477 32.36,10.2852 45.37,19.3047 13,9.0157 23.35,20.9567 31.05,35.8317 7.69,14.856 11.54,33.164 11.54,54.918 0,21.758 -3.85,40.067 -11.54,54.93 -7.7,14.859 -18.05,26.797 -31.05,35.82 -13.01,9.024 -28.13,15.453 -45.37,19.301 -17.26,3.848 -35.43,5.777 -54.53,5.777 h -13.14 z m -37.41,265.8751 h 62.09 c 23.07,0 44.77,-3.055 65.07,-9.152 20.3,-6.11 38.14,-15.329 53.53,-27.665 15.39,-12.339 27.53,-27.804 36.43,-46.367 8.88,-18.586 13.34,-40.343 13.34,-65.277 0,-25.481 -4.39,-47.766 -13.15,-66.867 -8.75,-19.114 -20.76,-34.8948 -36.02,-47.3713 -15.26,-12.4844 -33.23,-21.8282 -53.94,-28.0704 -20.68,-6.2265 -42.84,-9.3437 -66.46,-9.3437 h -60.89 z m -234.05,0 h 161.21 v -34.231 h -123.79 v -83.988 h 120.2 v -34.23 h -120.2 V 69.9219 h 123.79 V 35.6836 H 1951.83 Z M 1644.16,233.902 h -0.8 L 1608.33,35.6836 h -38.6 l 61.29,312.8514 103.09,-236.426 103.09,236.426 61.31,-312.8514 h -38.62 l -35.04,198.2184 h -0.79 L 1734.11,29.3164 Z M 1342.46,69.9219 h 91.15 V 35.6836 H 1305.04 V 335.797 h 37.42 z M 1067.82,335.797 h 161.2 v -34.231 h -123.78 v -83.988 h 120.2 v -34.23 h -120.2 V 69.9219 h 123.78 V 35.6836 h -161.2 z m -54.53,-57.32 c -10.88,9.554 -23.216,16.851 -37.017,21.894 -13.796,5.039 -27.859,7.563 -42.191,7.563 -16.715,0 -32.309,-3.258 -46.762,-9.75 -14.468,-6.504 -27.007,-15.329 -37.613,-26.469 -10.621,-11.145 -18.98,-24.152 -25.078,-39.004 -6.109,-14.867 -9.16,-30.652 -9.16,-47.367 0,-16.457 2.988,-32.043 8.957,-46.77 5.969,-14.726 14.262,-27.668 24.875,-38.8084 10.609,-11.1523 23.094,-19.9687 37.418,-26.4648 14.328,-6.5039 29.851,-9.7539 46.566,-9.7539 14.86,0 29.121,2.6523 42.789,7.957 13.668,5.3125 26.066,13 37.216,23.0859 V 50.4102 C 1001.61,43.5078 988.879,38.2617 975.078,34.6875 961.285,31.1016 947.75,29.3164 934.48,29.3164 c -21.492,0 -41.726,3.9844 -60.695,11.9336 -18.98,7.9688 -35.566,18.918 -49.758,32.8438 -14.191,13.9335 -25.41,30.3082 -33.629,49.1602 -8.23,18.836 -12.339,39.137 -12.339,60.891 0,22.296 4.175,43.05 12.539,62.296 8.351,19.239 19.757,35.95 34.226,50.149 14.461,14.191 31.375,25.34 50.746,33.437 19.368,8.086 40.071,12.137 62.098,12.137 13.266,0 26.332,-1.656 39.203,-4.973 12.871,-3.324 25.009,-8.433 36.419,-15.328 z m -454.938,57.32 h 42.586 l 61.296,-109.453 65.278,109.453 h 42.586 L 683.73,192.906 774.879,35.6836 H 733.086 L 662.234,158.672 588.598,35.6836 h -41.789 l 94.328,157.2224 -82.785,142.891" />
    </g>
  </g>
</svg>