<svg id="Ebene_1" data-name="Ebene 1" xmlns="http://www.w3.org/2000/svg" xmlns:xlink="http://www.w3.org/1999/xlink" viewBox="0 0 1930 205.8"><defs><style>.cls-1{fill:none;}.cls-2{clip-path:url(#clip-path);}.cls-3{clip-path:url(#clip-path-2);}.cls-4{fill:#fff;}.cls-5{clip-path:url(#clip-path-3);}.cls-6{clip-path:url(#clip-path-5);}.cls-7{clip-path:url(#clip-path-7);}.cls-8{clip-path:url(#clip-path-9);}.cls-9{clip-path:url(#clip-path-11);}.cls-10{clip-path:url(#clip-path-13);}.cls-11{clip-path:url(#clip-path-15);}</style><clipPath id="clip-path" transform="translate(5 5)"><path class="cls-1" d="M95,108.22h27.89V79.75H95ZM108.3,0c73.3,0,109.2,41.8,109.2,94.88,0,42.1-21.07,61.66-33.23,70.86-7.72,5.93-28.79,22.53-74.48,22.53H108.3C35.9,188,0,146.17,0,93.1,0,51,21.07,31.72,33.23,22.53,41,16.6,62,0,107.71,0Zm-2.67,166h3.27c42.43,0,81.89-20.16,81.89-70.27,0-17.78-5-35.87-18.39-50.69-11.57-11.86-30.86-21.65-60.24-22.54-.89,0-2.07.3-3.26.3C66.17,22.24,26.71,42.1,26.71,92.5c0,17.79,5,35.88,18.39,50.7C56.67,155.06,76.26,164.85,105.63,166Z"/></clipPath><clipPath id="clip-path-2" transform="translate(5 5)"><rect class="cls-1" width="1920" height="196"/></clipPath><clipPath id="clip-path-3" transform="translate(5 5)"><path class="cls-1" d="M534.51,129.27a59.67,59.67,0,0,1-18.25,21.34c-11.25,8.6-30.11,15.72-58.4,15.42-32.86,0-54.15-10.37-66.62-22.83-13.69-14.82-18.86-33.2-18.86-50.7,0-50.4,40.46-70.26,84-70.26,23.42,0,42.89,6.22,54.14,13.34C522,43,526.3,50.4,530.56,57.52l28-5.93c-4.87-8-14-22.83-33.47-35C500.44,1.78,468.5,0,455.42,0c-46.84,0-68.75,16.31-76.35,22.53C366.6,31.72,345,51,345,93.39c0,53.07,36.81,94.88,111.34,94.88,21.9,0,51.1-4.15,73.61-18.09,18.25-11.26,25.55-23.12,32.55-35.28Z"/></clipPath><clipPath id="clip-path-5" transform="translate(5 5)"><path class="cls-1" d="M1117.5,7.53v108c0,20.75.91,44.55,26.74,62.55,19.75,13.73,43.76,17.7,67.47,17.7,32.21,0,52.57-7.63,65.33-15.87,28-18.31,28-43.33,28-61.94V7.53h-26.14V119.82c0,15.26,0,34.18-23.7,44.86-10,4.57-25.52,7.93-43.15,7.93-28.87,0-43.46-7.93-50.14-12.51-15.8-10.07-17.93-22.58-18.23-43.94V7.53Z"/></clipPath><clipPath id="clip-path-7" transform="translate(5 5)"><path class="cls-1" d="M1710,188.27h25.8V116.09h88.3L1886,188.27h34l-67.07-76.39c12.14-2.1,49.16-7.82,49.16-51.12,0-21.65-10.31-33.68-16.38-38.79-16.09-13.84-35.51-14.14-51.59-14.44H1710ZM1835.94,29.18c11.84.3,25.19.3,33.38,13.24a34.81,34.81,0,0,1,5.46,19.24,31.38,31.38,0,0,1-6.07,19.25c-10.31,13.53-28.52,13.83-42.78,13.83H1735.8V29.18Z"/></clipPath><clipPath id="clip-path-9" transform="translate(5 5)"><polygon class="cls-1" points="960 188.27 1102.5 188.27 1102.5 166.31 985.03 166.31 985.03 7.53 960 7.53 960 188.27"/></clipPath><clipPath id="clip-path-11" transform="translate(5 5)"><polygon class="cls-1" points="795 188.27 937.5 188.27 937.5 166.31 820.03 166.31 820.03 7.53 795 7.53 795 188.27"/></clipPath><clipPath id="clip-path-13" transform="translate(5 5)"><polygon class="cls-1" points="592.5 188.27 765 188.27 765 166.01 617.91 166.01 617.91 105.27 754.84 105.27 754.84 83.92 617.91 83.92 617.91 29.79 758.72 29.79 758.72 7.53 592.5 7.53 592.5 188.27"/></clipPath><clipPath id="clip-path-15" transform="translate(5 5)"><path class="cls-1" d="M1632.64,122.52l-38.27-75.66c-1.2-3-2.71-6-4.22-9.31a60.47,60.47,0,0,1-2.1-6.9c-.91,2.4-1.51,4.8-2.72,7.5a67.67,67.67,0,0,1-4.52,9.61l-38.26,74.76ZM1342.5,188V7.53h25.61V166.05h124.43L1575.09,7.53h27.11L1695,188.27h-29.53l-22-44.44H1532l-22,44.44H1342.5Z"/></clipPath></defs><title>01_CELLULAR_logo_word_mark_white</title><g class="cls-2"><g class="cls-3"><rect class="cls-4" width="227.5" height="198.27"/></g></g><g class="cls-5"><g class="cls-3"><rect class="cls-4" x="345" width="227.5" height="198.27"/></g></g><g class="cls-6"><g class="cls-3"><rect class="cls-4" x="1117.5" y="7.53" width="197.5" height="198.27"/></g></g><g class="cls-7"><g class="cls-3"><rect class="cls-4" x="1710" y="7.53" width="220" height="190.74"/></g></g><g class="cls-8"><g class="cls-3"><rect class="cls-4" x="960" y="7.53" width="152.5" height="190.74"/></g></g><g class="cls-9"><g class="cls-3"><rect class="cls-4" x="795" y="7.53" width="152.5" height="190.74"/></g></g><g class="cls-10"><g class="cls-3"><rect class="cls-4" x="592.5" y="7.53" width="182.5" height="190.74"/></g></g><g class="cls-11"><g class="cls-3"><rect class="cls-4" x="1342.5" y="7.53" width="362.5" height="190.74"/></g></g></svg>