<?xml version="1.0" encoding="UTF-8"?>
<svg width="560px" height="119px" viewBox="0 0 560 119" version="1.1" xmlns="http://www.w3.org/2000/svg" xmlns:xlink="http://www.w3.org/1999/xlink">
    <defs>
        <polygon id="path-1" points="32.064 0.582 0.06 0.582 0.06 55.957 64.068 55.957 64.068 0.582 32.064 0.582"></polygon>
        <polygon id="path-3" points="100.906 27.94 0.478 27.94 0.478 0.407 100.906 0.407 100.906 27.94"></polygon>
        <polygon id="path-5" points="51.666 27.94 0.13 27.94 0.13 0.407 51.666 0.407 51.666 27.94"></polygon>
    </defs>
    <g id="Page-1" stroke="none" stroke-width="1" fill="none" fill-rule="evenodd">
        <g id="Cellular_bhs_rgb">
            <g id="Group-3">
                <mask id="mask-2" fill="white">
                    <use xlink:href="#path-1"></use>
                </mask>
                <g id="Clip-2"></g>
                <path d="M31.088,49.461 C31.387,49.424 31.713,49.461 32.064,49.461 C44.568,49.461 56.18,43.527 56.18,28.715 C56.18,23.506 54.689,18.148 50.746,13.754 C47.348,10.285 41.662,7.355 32.98,7.078 C32.686,7.113 32.359,7.131 32.006,7.131 C19.506,7.131 7.891,13.01 7.891,27.824 C7.891,33.033 9.379,38.391 13.326,42.785 C16.723,46.252 22.408,49.183 31.088,49.461 Z M31.869,0.584 C53.5,0.582 64.068,12.863 64.068,28.492 C64.068,40.922 57.893,46.656 54.32,49.332 C52.086,51.121 45.834,55.957 32.361,55.957 L31.93,55.957 C10.568,55.957 0,43.678 0,28.045 C0,15.615 6.18,9.885 9.75,7.205 C11.984,5.416 18.236,0.582 31.711,0.582 L31.869,0.584 Z M27.928,32.463 L36.141,32.463 L36.141,24.074 L27.928,24.074 L27.928,32.463 Z" id="Fill-1" fill="#262728" mask="url(#mask-2)"></path>
            </g>
            <path d="M155.646,38.615 C154.904,40.18 153.191,42.861 150.365,44.943 C147.162,47.471 141.73,49.557 133.617,49.482 C124.164,49.482 118.063,46.432 114.488,42.785 C110.543,38.391 109.055,33.033 109.055,27.824 C109.055,13.01 120.664,7.131 133.172,7.131 C139.867,7.131 145.525,8.992 148.727,11.074 C152.004,13.232 153.266,15.467 154.459,17.553 L162.5,15.764 C161.086,13.383 158.479,8.992 152.896,5.492 C145.826,1.1 136.666,0.582 132.873,0.582 C119.4,0.582 113.15,5.416 110.914,7.205 C107.342,9.885 101.166,15.615 101.166,28.045 C101.166,43.678 111.734,55.957 133.098,55.957 C139.424,55.957 147.76,54.768 154.234,50.672 C159.449,47.396 161.529,43.826 163.543,40.252 L155.646,38.615" id="Fill-4" fill="#262728"></path>
            <path d="M326.893,2.145 L326.893,33.033 C326.893,38.988 327.117,45.762 334.563,50.896 C340.221,54.842 347.141,55.957 353.986,55.957 C363.219,55.957 369.102,53.801 372.746,51.416 C380.785,46.207 380.785,38.988 380.785,33.705 L380.785,2.145 L373.266,2.145 L373.266,34.299 C373.266,38.691 373.266,44.125 366.494,47.176 C363.594,48.516 359.125,49.482 354.068,49.482 C345.728,49.482 341.564,47.176 339.627,45.912 C335.082,43.006 334.488,39.436 334.414,33.33 L334.414,2.145 L326.893,2.145" id="Fill-5" fill="#262728"></path>
            <path d="M535.428,8.473 C538.854,8.545 542.646,8.545 545.029,12.338 C546.072,13.902 546.592,15.914 546.592,17.922 C546.592,19.785 546.141,21.793 544.805,23.506 C541.828,27.451 536.615,27.527 532.519,27.527 L506.547,27.527 L506.547,8.473 L535.428,8.473 Z M499.176,54.691 L506.621,54.691 L506.621,33.705 L532.002,33.705 L549.793,54.691 L559.537,54.691 L540.189,32.512 C543.691,31.916 554.33,30.205 554.33,17.625 C554.33,11.299 551.355,7.873 549.643,6.387 C545.104,2.295 539.516,2.219 534.902,2.145 L499.176,2.145 L499.176,54.691 L499.176,54.691 Z" id="Fill-6" fill="#262728"></path>
            <polyline id="Fill-7" fill="#262728" points="279.094 54.691 321.371 54.691 321.371 48.293 286.539 48.293 286.539 2.145 279.094 2.145 279.094 54.691"></polyline>
            <polyline id="Fill-8" fill="#262728" points="231.221 54.691 273.498 54.691 273.498 48.293 238.66 48.293 238.66 2.145 231.221 2.145 231.221 54.691"></polyline>
            <polyline id="Fill-9" fill="#262728" points="171.82 54.691 222.205 54.691 222.205 48.215 179.268 48.215 179.268 30.504 219.238 30.504 219.238 24.324 179.268 24.324 179.268 8.619 220.35 8.619 220.35 2.145 171.82 2.145 171.82 54.691"></polyline>
            <path d="M391.166,54.691 L391.166,2.145 L398.611,2.145 L398.611,48.293 L434.711,48.293 L458.57,2.145 L466.459,2.145 L493.402,54.691 L484.844,54.691 L478.449,41.742 L446.143,41.742 L439.742,54.691 L391.166,54.691 Z M475.25,35.639 L464.16,13.594 C463.777,12.701 463.34,11.811 462.965,10.92 C462.74,10.254 462.521,9.586 462.371,8.916 C462.146,9.586 461.922,10.328 461.627,11.07 C461.252,12.033 460.809,12.926 460.357,13.889 L449.268,35.639 L475.25,35.639 L475.25,35.639 Z" id="Fill-10" fill="#262728"></path>
            <path d="M5.673,105.395 L5.673,116.981 L11.988,116.981 C16.957,116.981 19.442,114.961 19.442,110.922 C19.442,107.239 16.823,105.395 11.585,105.395 L5.673,105.395 Z M5.673,103.743 L11.585,103.743 C14.106,103.743 15.939,103.325 17.084,102.485 C18.228,101.647 18.8,100.334 18.8,98.547 C18.8,96.76 18.154,95.463 16.863,94.655 C15.572,93.848 13.646,93.444 11.089,93.444 L5.673,93.444 L5.673,103.743 Z M3.801,91.791 L11.162,91.791 C14.478,91.791 16.915,92.354 18.47,93.481 C20.023,94.606 20.801,96.307 20.801,98.584 C20.801,100.139 20.326,101.434 19.379,102.467 C18.43,103.502 17.043,104.166 15.22,104.459 L15.22,104.569 C17.361,104.887 18.938,105.565 19.947,106.598 C20.957,107.633 21.462,109.075 21.462,110.922 C21.462,113.395 20.643,115.297 19.002,116.631 C17.361,117.965 15.036,118.633 12.025,118.633 L3.801,118.633 L3.801,91.791 L3.801,91.791 Z" id="Fill-11" fill="#262728"></path>
            <polyline id="Fill-12" fill="#262728" points="52.647 118.633 37.977 118.633 37.977 91.791 52.647 91.791 52.647 93.518 39.85 93.518 39.85 103.67 51.93 103.67 51.93 105.395 39.85 105.395 39.85 116.907 52.647 116.907 52.647 118.633"></polyline>
            <polyline id="Fill-13" fill="#262728" points="88.77 118.633 86.878 118.633 86.878 105.432 71.199 105.432 71.199 118.633 69.326 118.633 69.326 91.791 71.199 91.791 71.199 103.708 86.878 103.708 86.878 91.791 88.77 91.791 88.77 118.633"></polyline>
            <polygon id="Fill-14" fill="#262728" points="106.973 118.633 108.846 118.633 108.846 91.791 106.973 91.791"></polygon>
            <path d="M146.565,118.633 L144.674,118.633 L128.775,94.803 L128.629,94.803 C128.775,97.641 128.849,99.784 128.849,101.229 L128.849,118.633 L127.049,118.633 L127.049,91.791 L128.922,91.791 L144.803,115.584 L144.913,115.584 C144.803,113.381 144.748,111.289 144.748,109.307 L144.748,91.791 L146.565,91.791 L146.565,118.633" id="Fill-15" fill="#262728"></path>
            <path d="M183.111,105.028 C183.111,101.186 182.135,98.293 180.182,96.354 C178.23,94.414 175.363,93.444 171.581,93.444 L166.643,93.444 L166.643,116.981 L171.086,116.981 C179.102,116.981 183.111,112.996 183.111,105.028 Z M185.148,104.955 C185.148,109.459 183.967,112.866 181.605,115.172 C179.242,117.479 175.773,118.633 171.195,118.633 L164.77,118.633 L164.77,91.791 L172.021,91.791 C176.305,91.791 179.564,92.911 181.798,95.151 C184.031,97.391 185.148,100.659 185.148,104.955 L185.148,104.955 Z" id="Fill-16" fill="#262728"></path>
            <polyline id="Fill-17" fill="#262728" points="230.523 118.633 228.633 118.633 228.633 93.553 219.912 93.553 219.912 91.791 239.244 91.791 239.244 93.553 230.523 93.553 230.523 118.633"></polyline>
            <polyline id="Fill-18" fill="#262728" points="273.274 118.633 271.383 118.633 271.383 105.432 255.704 105.432 255.704 118.633 253.832 118.633 253.832 91.791 255.704 91.791 255.704 103.708 271.383 103.708 271.383 91.791 273.274 91.791 273.274 118.633"></polyline>
            <g id="Group-23" transform="translate(291.000000, 91.000000)">
                <mask id="mask-4" fill="white">
                    <use xlink:href="#path-3"></use>
                </mask>
                <g id="Clip-20"></g>
                <polyline id="Fill-19" fill="#262728" mask="url(#mask-4)" points="15.147 27.633 0.478 27.633 0.478 0.791 15.147 0.791 15.147 2.518 2.351 2.518 2.351 12.67 14.432 12.67 14.432 14.395 2.351 14.395 2.351 25.907 15.147 25.907 15.147 27.633"></polyline>
                <path d="M68.252,20.711 C68.252,22.952 67.429,24.725 65.783,26.036 C64.137,27.346 61.948,28 59.22,28 C55.939,28 53.424,27.639 51.674,26.916 L51.674,25.043 C53.607,25.864 56.073,26.274 59.072,26.274 C61.275,26.274 63.022,25.77 64.314,24.76 C65.605,23.75 66.251,22.424 66.251,20.786 C66.251,19.768 66.037,18.928 65.608,18.26 C65.18,17.594 64.482,16.985 63.516,16.434 C62.549,15.883 61.129,15.289 59.256,14.653 C56.515,13.709 54.62,12.692 53.574,11.596 C52.527,10.5 52.004,9.041 52.004,7.217 C52.004,5.209 52.79,3.573 54.363,2.305 C55.935,1.039 57.959,0.407 60.431,0.407 C62.952,0.407 65.32,0.883 67.536,1.838 L66.856,3.454 C64.629,2.524 62.499,2.059 60.468,2.059 C58.485,2.059 56.906,2.518 55.731,3.436 C54.556,4.354 53.969,5.602 53.969,7.18 C53.969,8.172 54.149,8.987 54.51,9.621 C54.871,10.258 55.462,10.83 56.282,11.338 C57.102,11.846 58.51,12.455 60.505,13.166 C62.598,13.887 64.17,14.588 65.223,15.268 C66.275,15.948 67.043,16.717 67.527,17.58 C68.011,18.444 68.252,19.487 68.252,20.711" id="Fill-21" fill="#262728" mask="url(#mask-4)"></path>
                <path d="M93.985,2.094 C90.619,2.094 87.97,3.172 86.035,5.327 C84.102,7.481 83.135,10.43 83.135,14.176 C83.135,18.006 84.047,20.981 85.87,23.098 C87.694,25.215 90.301,26.274 93.691,26.274 C95.943,26.274 98.012,25.987 99.896,25.411 L99.896,27.063 C98.122,27.688 95.906,28 93.251,28 C89.48,28 86.513,26.782 84.347,24.346 C82.18,21.911 81.097,18.508 81.097,14.139 C81.097,11.409 81.614,9.004 82.648,6.924 C83.683,4.842 85.17,3.237 87.109,2.104 C89.05,0.971 91.305,0.407 93.875,0.407 C96.494,0.407 98.838,0.895 100.906,1.875 L100.154,3.563 C98.195,2.584 96.14,2.094 93.985,2.094" id="Fill-22" fill="#262728" mask="url(#mask-4)"></path>
            </g>
            <path d="M409.357,105.323 L414.479,105.323 C416.744,105.323 418.501,104.817 419.749,103.807 C420.997,102.797 421.622,101.307 421.622,99.336 C421.622,97.293 421.01,95.805 419.786,94.875 C418.561,93.946 416.566,93.481 413.801,93.481 L409.357,93.481 L409.357,105.323 Z M409.357,106.938 L409.357,118.633 L407.485,118.633 L407.485,91.791 L413.874,91.791 C417.203,91.791 419.663,92.407 421.255,93.637 C422.846,94.866 423.642,96.717 423.642,99.19 C423.642,100.989 423.167,102.506 422.219,103.743 C421.27,104.979 419.828,105.868 417.895,106.405 L425.184,118.633 L422.943,118.633 L416.022,106.938 L409.357,106.938 L409.357,106.938 Z" id="Fill-24" fill="#262728"></path>
            <polyline id="Fill-25" fill="#262728" points="456.101 118.633 441.432 118.633 441.432 91.791 456.101 91.791 456.101 93.518 443.304 93.518 443.304 103.67 455.385 103.67 455.385 105.395 443.304 105.395 443.304 116.907 456.101 116.907 456.101 118.633"></polyline>
            <polyline id="Fill-26" fill="#262728" points="488.45 118.633 473.781 118.633 473.781 91.791 488.45 91.791 488.45 93.518 475.653 93.518 475.653 103.67 487.734 103.67 487.734 105.395 475.653 105.395 475.653 116.907 488.45 116.907 488.45 118.633"></polyline>
            <g id="Group-30" transform="translate(506.000000, 91.000000)">
                <mask id="mask-6" fill="white">
                    <use xlink:href="#path-5"></use>
                </mask>
                <g id="Clip-28"></g>
                <path d="M19.646,27.633 L17.755,27.633 L1.855,3.803 L1.708,3.803 C1.855,6.641 1.929,8.784 1.929,10.229 L1.929,27.633 L0.13,27.633 L0.13,0.791 L2.002,0.791 L17.883,24.584 L17.993,24.584 C17.883,22.381 17.828,20.289 17.828,18.307 L17.828,0.791 L19.646,0.791 L19.646,27.633" id="Fill-27" fill="#262728" mask="url(#mask-6)"></path>
                <path d="M51.666,20.711 C51.666,22.952 50.843,24.725 49.197,26.036 C47.551,27.346 45.362,28 42.634,28 C39.354,28 36.838,27.639 35.088,26.916 L35.088,25.043 C37.021,25.864 39.487,26.274 42.486,26.274 C44.689,26.274 46.436,25.77 47.729,24.76 C49.019,23.75 49.665,22.424 49.665,20.786 C49.665,19.768 49.451,18.928 49.022,18.26 C48.594,17.594 47.896,16.985 46.93,16.434 C45.963,15.883 44.543,15.289 42.67,14.653 C39.929,13.709 38.034,12.692 36.988,11.596 C35.941,10.5 35.418,9.041 35.418,7.217 C35.418,5.209 36.204,3.573 37.777,2.305 C39.35,1.039 41.373,0.407 43.845,0.407 C46.366,0.407 48.734,0.883 50.95,1.838 L50.271,3.454 C48.043,2.524 45.913,2.059 43.882,2.059 C41.899,2.059 40.32,2.518 39.146,3.436 C37.97,4.354 37.383,5.602 37.383,7.18 C37.383,8.172 37.563,8.987 37.924,9.621 C38.285,10.258 38.876,10.83 39.696,11.338 C40.516,11.846 41.924,12.455 43.919,13.166 C46.012,13.887 47.584,14.588 48.637,15.268 C49.689,15.948 50.457,16.717 50.941,17.58 C51.425,18.444 51.666,19.487 51.666,20.711" id="Fill-29" fill="#262728" mask="url(#mask-6)"></path>
            </g>
        </g>
    </g>
</svg>
