<?xml version="1.0" encoding="utf-8"?>
<!-- Generator: Adobe Illustrator 22.0.1, SVG Export Plug-In . SVG Version: 6.00 Build 0)  -->
<svg version="1.1" id="Ebene_1" 
    xmlns="http://www.w3.org/2000/svg" 
    xmlns:xlink="http://www.w3.org/1999/xlink" x="0px" y="0px" viewBox="0 0 841.9 241.5" style="enable-background:new 0 0 841.9 241.5;" xml:space="preserve">
    <style type="text/css">	.st0{fill:#fff;}	.st1{fill:url(#SVGID_1_);}
</style>
    <path class="st0" d="M353.4,79.8h-3.9c-2.1,0-3,0.9-3,3v13.6c-2.7-0.7-7.1-1.8-12.4-1.8c-12.9,0-19.8,6.9-19.8,19.9v13.2	c0,12.8,7.2,19.6,20.8,19.6c8.4,0,13.8-1.7,17.1-3c3.3-1.3,4.1-2.5,4.1-5.8V82.8C356.3,80.8,355.4,79.8,353.4,79.8z M346.5,135.6	c0,0.8,0,0.8-0.8,1.1c-2.7,0.9-6.2,1.5-9.8,1.5c-7.8,0-11.6-3.5-11.6-10.7v-12.7c0-7.5,3.6-11,11.4-11c4.7,0,8.5,1.2,10.8,1.9V135.6	z M638.7,96h-11.5V82.8c0-2.1-0.9-3-3-3h-3.9c-2.1,0-2.9,0.9-2.9,3V96h-7c-2.1,0-3,0.9-3,3v3.3c0,2.1,0.9,3,3,3h7v21.3	c0,7.9,1.4,12.9,4.5,16.1c3,3.1,7.7,4.5,15.1,4.5c0.5,0,1.1,0,1.7,0c1.9-0.1,3.1-0.6,3.1-3v-3.4c0-2.2-0.9-3-3.1-3	c-8.6,0-11.3-1.6-11.3-11.4v-21.1h11.5c2,0,2.9-0.9,2.9-3V99C641.6,96.9,640.7,96,638.7,96z M705.4,96h-3.9c-2.1,0-3,0.9-3,3v43.9	c0,2.1,0.9,3,3,3h3.9c2.1,0,3-0.9,3-3V99C708.4,96.9,707.5,96,705.4,96z M276,94.6c-13.6,0-21.7,7-21.7,18.7v15.3	c0,11.5,8.3,18.7,21.7,18.7c13.7,0,21.8-7,21.8-18.7v-15.3C297.9,101.6,289.7,94.6,276,94.6z M288,128.6c0,6-4.5,9.6-12,9.6	c-7.5,0-11.9-3.6-11.9-9.6v-15.4c0-6,4.5-9.6,11.9-9.6c7.5,0,12,3.6,12,9.6V128.6z M574,94.6c-9.2,0-14.8,1.9-18.2,3.2	c-3.1,1.3-4,2.6-4,5.9v39.1c0,2.1,0.9,3,2.9,3h3.9c2.1,0,3-0.9,3-3v-36.5c0-0.5,0.1-0.8,0.6-1c3.4-1.1,7-1.6,10.6-1.6	c7.5,0,11,3.3,11,10.4v28.7c0,2.1,0.9,3,3,3h3.9c2.1,0,3-0.9,3-3v-29C593.8,101.3,587,94.6,574,94.6z M512.7,94.6	c-13.9,0-21.9,7.6-21.9,20.8V127c0,13.1,7.7,20.2,21.6,20.2c10,0,17-3.4,20.8-10c0.7-1.1,0.9-2,0.7-2.8c-0.2-0.8-0.8-1.4-1.8-1.9	l-2.5-1.3c-0.8-0.5-1.5-0.7-2-0.7c-1.2,0-2,0.9-2.6,1.8c-2.4,4.1-6.5,6.1-12.4,6.1c-7.7,0-11.8-3.6-11.8-10.5v-3.8h29.8	c2.8,0,4.2-1.4,4.2-4v-5.4C534.7,102.1,526.5,94.6,512.7,94.6z M524.8,116.3h-24.2v-2c0-7.1,4.3-11.1,12.1-11.1s12.1,3.9,12.1,11.1	V116.3z M396,94.6c-13.9,0-21.9,7.6-21.9,20.8V127c0,13.1,7.7,20.2,21.6,20.2c10,0,17-3.4,20.8-10c0.7-1,0.9-2,0.7-2.8	c-0.2-0.8-0.8-1.4-1.8-1.9l-2.5-1.3c-0.8-0.5-1.5-0.7-2-0.7c-1.2,0-2,0.9-2.6,1.8c-2.4,4.1-6.5,6.1-12.4,6.1	c-7.7,0-11.8-3.6-11.8-10.5v-3.8h29.8c2.8,0,4.2-1.4,4.2-4v-5.4C417.9,102.1,409.7,94.6,396,94.6z M408.1,116.3h-24.2v-2	c0-7.1,4.3-11.1,12.1-11.1s12.1,3.9,12.1,11.1V116.3z M681,94.6h-3c-6.8,0.2-12.6,1.1-17.4,3c-3.1,1.3-4,2.6-4,5.9v39.4	c0,2.1,0.9,3,2.9,3h3.9c2.1,0,3-0.9,3-3v-36.4c0-0.6,0-0.9,0.8-1.2c3.4-1.1,6.8-1.6,10.6-1.6h3.3c2.1,0,3-0.9,3-3v-3.2	C684,95.5,683.2,94.6,681,94.6z"/>
    <linearGradient id="SVGID_1_" gradientUnits="userSpaceOnUse" x1="88.5938" y1="159.6171" x2="160.271" y2="87.9399">
        <stop offset="5.000000e-02" style="stop-color:#fff"/>
        <stop offset="0.2289" style="stop-color:#fff"/>
        <stop offset="0.7435" style="stop-color:#fff"/>
        <stop offset="1" style="stop-color:#fff"/>
    </linearGradient>
    <path class="st1" d="M127.6,155.4c-0.8-0.8-2.1-0.9-3.1-0.2c-4.4,3-9.4,4.3-13.8,4.3c-14,0-25.3-11.5-25-25.6	c0.3-13.6,11.8-24.4,25.4-24.4h26.8c2.6,0,4.8,1.8,5.2,4.4c0.4,3.1-2,5.7-5,5.7h-27c-7.3,0-13.5,5.7-13.8,13	c-0.3,7.7,5.9,14,13.5,14h26.8c18.3,0,33.6-14.5,34-32.8c0.4-18.7-14.8-34.1-33.4-34.1c-5.7,0-12.9,1.4-19.4,6.2	c-1.2,0.9-1.3,2.6-0.3,3.6l2.8,2.8c0.8,0.8,2.1,0.9,3.1,0.2c4.4-3,9.4-4.3,13.8-4.3c14,0,25.3,11.5,25,25.6	c-0.3,13.6-11.8,24.4-25.4,24.4h-26.8c-2.6,0-4.8-1.8-5.2-4.4c-0.4-3.1,2-5.7,5-5.7h27c7.3,0,13.5-5.7,13.8-13	c0.3-7.7-5.9-14-13.5-14h-26.8c-18.3,0-33.6,14.5-34,32.8c-0.4,18.7,14.8,34.1,33.4,34.1c5.7,0,12.9-1.4,19.4-6.2	c1.2-0.9,1.3-2.6,0.3-3.6L127.6,155.4z"/>
    <path class="st0" d="M236.8,129.7c0,0-3.2-1.2-4.5-1.2c-1.4,0-2,1.1-2.6,2.3c-2.3,5-5.8,7.6-11.9,7.6c-7.4,0-11.4-3.7-11.4-10.4	v-14.2c0-6.7,4-10.3,11.4-10.3c6.3,0,9.3,2.2,11.5,7.4c0.4,1,1.1,2.2,2.6,2.3c1.2,0.1,5.9-1.5,6.9-3c0.4-0.6,0.3-1.5-0.1-2.6	c-1.9-6-7-13.1-20.5-13.1c-14,0-21.7,7-21.7,19.6v13.4c0,12.7,7.5,19.7,21.2,19.7c11,0,18-4.4,21.2-13.4	C239.8,131.3,238.4,130.3,236.8,129.7z"/>
    <path class="st0" d="M473.5,129.7c0,0-3.2-1.2-4.5-1.2c-1.4,0-2,1.1-2.6,2.3c-2.3,5-5.8,7.6-11.9,7.6c-7.4,0-11.4-3.7-11.4-10.4	v-14.2c0-6.7,4-10.3,11.4-10.3c6.3,0,9.3,2.2,11.5,7.4c0.4,1,1.1,2.2,2.6,2.3c1.2,0.1,5.9-1.5,6.9-3c0.4-0.6,0.3-1.5-0.1-2.6	c-1.9-6-7-13.1-20.5-13.1c-14,0-21.7,7-21.7,19.6v13.4c0,12.7,7.5,19.7,21.2,19.7c11,0,18-4.4,21.2-13.4	C476.5,131.3,475.1,130.3,473.5,129.7z"/>
    <path class="st0" d="M766.6,129.7c0,0-3.2-1.2-4.5-1.2c-1.4,0-2,1.1-2.6,2.3c-2.3,5-5.8,7.6-11.9,7.6c-7.4,0-11.4-3.7-11.4-10.4	v-14.2c0-6.7,4-10.3,11.4-10.3c6.3,0,9.3,2.2,11.5,7.4c0.4,1,1.1,2.2,2.6,2.3c1.2,0.1,5.9-1.5,6.9-3c0.4-0.6,0.3-1.5-0.1-2.6	c-1.9-6-7-13.1-20.5-13.1c-14,0-21.7,7-21.7,19.6v13.4c0,12.7,7.5,19.7,21.2,19.7c11,0,18-4.4,21.2-13.4	C769.7,131.3,768.2,130.3,766.6,129.7z"/>
</svg>