<?xml version="1.0" standalone="no"?><!DOCTYPE svg PUBLIC "-//W3C//DTD SVG 1.1//EN" "http://www.w3.org/Graphics/SVG/1.1/DTD/svg11.dtd"><svg width="100%" height="100%" viewBox="0 0 327 85" version="1.1" xmlns="http://www.w3.org/2000/svg" xmlns:xlink="http://www.w3.org/1999/xlink" xml:space="preserve" style="fill-rule:evenodd;clip-rule:evenodd;stroke-linejoin:round;stroke-miterlimit:1.41421;"><g><path d="M302.025,12.715l0,10.709l2.75,0l0,-7.959l3.155,0l0,7.959l2.75,0l0,-7.959l3.124,0l0,7.959l2.75,0l0,-8.416c6.287,7.364 10.082,16.919 10.082,27.361c0,23.286 -18.876,42.163 -42.162,42.163c-23.286,0 -42.163,-18.877 -42.163,-42.163c0,-23.286 18.877,-42.163 42.163,-42.163c11.724,0 22.33,4.786 29.973,12.509l-12.422,0ZM302.115,35.351l0,-8.276l-30.707,0l-8.19,8.19l0,17.613l8.19,8.191l30.707,0l0,-8.39l-27.72,0l-2.37,-2.371l0,-12.586l2.37,-2.371l27.72,0Z" style="fill:black;"/><path d="M33.542,7.795l0,15.339l13.658,0l0,-15.339l-13.658,0ZM29.178,27.501l0,-24.07l22.385,0l0,24.066l-22.385,0.004Z" style="fill:black;fill-rule:nonzero;"/><path d="M72.946,19.554l7.948,7.947l-6.175,-0.004l-7.944,-7.943l-4.81,0l0,7.947l-4.364,0l0,-24.07l16.926,0l4.296,4.296l0,11.827l-5.877,0ZM61.965,15.19l12.495,0l0,-5.655l-1.741,-1.74l-10.754,0l0,7.395Z" style="fill:black;fill-rule:nonzero;"/><rect x="198.941" y="3.431" width="2.772" height="24.07" style="fill:black;"/><path d="M0.638,22.397l0,-13.866l5.101,-5.1l17.906,0l0,4.364l-16.099,0l-2.544,2.544l0,10.25l2.544,2.545l16.099,0l0,4.363l-17.906,0l-5.101,-5.1Z" style="fill:black;fill-rule:nonzero;"/><path d="M83.988,27.501l0,-24.07l21.822,0l0,4.364l-17.459,0l0,5.489l12.961,0l0,4.364l-12.961,0l0,5.486l17.459,0l0,4.363l-21.822,0.004Z" style="fill:black;fill-rule:nonzero;"/><path d="M137.065,27.501l0,-18.558l-2.74,-2.74l-7.477,0l0,21.298l-2.772,0l0,-21.298l-10.217,0l0,21.298l-2.772,0l0,-24.07l24.386,0l4.364,4.364l0,19.706l-2.772,0Z" style="fill:black;fill-rule:nonzero;"/><path d="M167.187,27.501l-21.823,0l0,-24.07l21.823,0l0,2.772l-19.051,0l0,7.606l14.526,0l0,2.771l-14.526,0l0,8.149l19.051,0l0,2.772Z" style="fill:black;fill-rule:nonzero;"/><path d="M188.255,24.729l2.741,-2.74l0,-13.046l-2.741,-2.74l-13.786,0l0,18.526l13.786,0ZM193.767,23.137l-4.363,4.364l-17.707,0l0,-24.07l17.707,0l4.363,4.364l0,15.342Z" style="fill:black;fill-rule:nonzero;"/><path d="M207.315,3.431l17.707,0l4.364,4.364l0,19.702l-2.772,0l0,-9.895l-16.527,0l0,9.899l-2.772,0l0,-24.07ZM223.874,6.203l-13.787,0l0,8.627l16.527,0l0,-5.887l-2.74,-2.74Z" style="fill:black;fill-rule:nonzero;"/></g></svg>
