<?xml version="1.0" encoding="UTF-8" standalone="no"?>
<svg
   xmlns:dc="http://purl.org/dc/elements/1.1/"
   xmlns:cc="http://creativecommons.org/ns#"
   xmlns:rdf="http://www.w3.org/1999/02/22-rdf-syntax-ns#"
   xmlns:svg="http://www.w3.org/2000/svg"
   xmlns="http://www.w3.org/2000/svg"
   viewBox="0 0 2030.325 1487.075"
   height="1487.075"
   width="2030.325"
   xml:space="preserve"
   version="1.1"
   id="svg2"><metadata
     id="metadata8"><rdf:RDF><cc:Work
         rdf:about=""><dc:format>image/svg+xml</dc:format><dc:type
           rdf:resource="http://purl.org/dc/dcmitype/StillImage" /></cc:Work></rdf:RDF></metadata><defs
     id="defs6"><clipPath
       id="clipPath18"
       clipPathUnits="userSpaceOnUse"><path
         id="path20"
         d="m 0,0 14663,0 0,10739.9 -14663,0 L 0,0 Z" /></clipPath></defs><g
     transform="matrix(1.25,0,0,-1.25,0,1487.075)"
     id="g10"><g
       transform="scale(0.11077,0.11077)"
       id="g12"><g
         id="g14"><g
           clip-path="url(#clipPath18)"
           id="g16"><path
             id="path22"
             style="fill:#fff;fill-opacity:1;fill-rule:nonzero;stroke:none"
             d="m 1623.75,1299.81 c -33.22,323.91 -224.25,577.24 -556.48,577.24 -307.297,0 -523.254,-236.72 -568.934,-577.24 l 1125.414,0 z M 0,1137.85 l 0,8.31 c 0,627.07 444.352,1142.02 1071.43,1142.02 697.66,0 1050.66,-548.17 1050.66,-1179.4 0,-45.68 -4.16,-91.36 -8.31,-141.19 l -1611.288,0 c 53.985,-357.137 307.313,-556.469 631.218,-556.469 245.02,0 419.44,91.359 593.86,261.621 L 2022.42,411.121 C 1814.77,161.957 1528.23,0 1125.41,0 490.031,0 0,460.953 0,1137.85" /><path
             id="path24"
             style="fill:#fff;fill-opacity:1;fill-rule:nonzero;stroke:none"
             d="m 2283.96,473.414 307.31,365.441 c 278.25,-240.859 560.63,-377.902 917.77,-377.902 315.61,0 514.94,149.5 514.94,365.442 l 0,8.308 c 0,207.637 -116.26,319.757 -656.14,444.337 -618.76,149.5 -967.6,332.22 -967.6,867.94 l 0,8.31 c 0,498.34 415.29,843.01 992.53,843.01 423.58,0 759.95,-128.73 1054.8,-365.44 l -274.09,-386.21 c -261.62,195.18 -523.24,299 -789.02,299 -299.01,0 -473.42,-153.65 -473.42,-344.68 l 0,-8.31 c 0,-224.25 132.88,-323.92 693.51,-456.8 614.62,-149.51 930.23,-369.61 930.23,-851.329 l 0,-8.304 C 4534.78,332.219 4107.05,8.30469 3496.59,8.30469 3052.23,8.30469 2632.8,161.957 2283.96,473.414" /><path
             id="path26"
             style="fill:#fff;fill-opacity:1;fill-rule:nonzero;stroke:none"
             d="m 6247.14,838.855 0,149.497 c -128.73,49.828 -299,87.208 -498.33,87.208 -323.92,0 -514.95,-137.04 -514.95,-365.443 l 0,-8.304 c 0,-211.79 186.87,-332.219 427.74,-332.219 332.22,0 585.54,191.027 585.54,469.261 m -1503.3,-157.804 0,8.304 c 0,473.415 369.59,705.965 905.3,705.965 245.01,0 419.44,-37.37 589.7,-91.36 l 0,53.99 c 0,311.45 -191.04,477.57 -544.02,477.57 -245.01,0 -427.74,-53.98 -627.07,-137.05 L 4934.86,2093 c 240.86,107.98 477.57,178.56 826.41,178.56 328.07,0 573.08,-87.21 726.73,-245.01 161.97,-157.81 236.72,-390.37 236.72,-676.91 l 0,-1299.808 -490.03,0 0,274.082 C 6085.19,145.348 5856.78,4.15234 5520.41,4.15234 c -411.13,0 -776.57,236.70666 -776.57,676.89866" /><path
             id="path28"
             style="fill:#fff;fill-opacity:1;fill-rule:nonzero;stroke:none"
             d="m 7175.31,49.832 502.492,0 0,2192.68 -502.492,0 0,-2192.68 z" /><path
             id="path30"
             style="fill:#fff;fill-opacity:1;fill-rule:nonzero;stroke:none"
             d="m 7715.45,2810.52 c 0,-159.54 -129.34,-288.89 -288.89,-288.89 -159.55,0 -288.89,129.35 -288.89,288.89 0,159.55 129.34,288.89 288.89,288.89 159.55,0 288.89,-129.34 288.89,-288.89" /><path
             id="path32"
             style="fill:#fff;fill-opacity:1;fill-rule:nonzero;stroke:none"
             d="m 8146.3,49.832 502.48,0 0,3031.53 -502.48,0 0,-3031.53 z" /><path
             id="path34"
             style="fill:#fff;fill-opacity:1;fill-rule:nonzero;stroke:none"
             d="m 10783.5,1133.7 0,8.3 c 0,386.21 -278.2,705.97 -672.8,705.97 -402.77,0 -660.24,-315.61 -660.24,-697.66 l 0,-8.31 c 0,-382.047 278.23,-701.809 668.64,-701.809 406.9,0 664.4,315.61 664.4,693.509 m -1835.51,0 0,8.3 c 0,627.07 498.31,1146.19 1171.11,1146.19 672.7,0 1166.9,-510.81 1166.9,-1137.88 l 0,-8.31 C 11286,519.094 10787.6,0 10110.7,0 9442.15,0 8947.99,510.789 8947.99,1133.7" /><path
             id="path36"
             style="fill:#fff;fill-opacity:1;fill-rule:nonzero;stroke:none"
             d="m 11589.9,2242.5 502.5,0 0,-494.19 c 137.1,328.08 390.4,552.32 776.6,535.71 l 0,-531.56 -29.1,0 c -440.2,0 -747.5,-286.54 -747.5,-867.929 l 0,-834.699 -502.5,0 0,2192.668" /><path
             id="path38"
             style="fill:#fff;fill-opacity:1;fill-rule:nonzero;stroke:none"
             d="m 12919.2,336.371 224.2,340.524 c 240.9,-178.567 494.2,-269.926 718.4,-269.926 216,0 340.6,91.359 340.6,236.707 l 0,8.304 c 0,170.262 -232.6,228.399 -490.1,307.301 -323.9,91.359 -685.2,224.249 -685.2,643.679 l 0,8.3 c 0,415.3 344.7,668.6 780.8,668.6 274,0 573,-95.51 805.6,-249.15 l -199.3,-357.16 c -211.8,128.76 -436.1,207.64 -618.8,207.64 -195.2,0 -307.3,-91.34 -307.3,-215.94 l 0,-8.31 c 0,-161.96 236.7,-228.4 494.2,-311.45 319.7,-99.67 681,-245.01 681,-639.525 l 0,-8.305 c 0,-460.953 -357.1,-689.35531 -813.9,-689.35531 -311.5,0 -656.1,112.12531 -930.2,328.06631" /><path
             id="path40"
             style="fill:#fff;fill-opacity:1;fill-rule:evenodd;stroke:none"
             d="m 6249.48,4927.67 c -331.04,139.99 -628.46,340.5 -883.97,595.97 -255.5,255.45 -456.05,552.79 -596.06,883.75 -35.94,84.97 -67.47,171.26 -94.58,258.73 493.65,-168.21 1022.9,-259.53 1573.49,-259.53 226.64,0 449.66,15.54 668.08,45.46 266.14,-742.9 926.6,-1298.05 1729.24,-1413.41 -75.29,-40.38 -152.55,-77.46 -231.81,-110.97 -342.5,-144.84 -706.6,-218.28 -1082.19,-218.28 -375.59,0 -739.7,73.44 -1082.2,218.28 M 4551.15,7489.28 c 0,375.51 73.45,739.59 218.32,1082.13 140.04,331.13 340.61,628.63 596.13,884.25 255.54,255.63 552.95,456.27 883.99,596.34 342.49,145 706.56,218.4 1082.09,218.4 375.52,0 739.58,-73.4 1082.07,-218.4 331.05,-140.07 628.48,-340.71 884.05,-596.34 52.09,-52.2 101.92,-106.24 149.41,-161.87 -157.62,36.52 -321.84,55.83 -490.55,55.83 -1196.6,0 -2166.64,-970.69 -2166.64,-2167.07 0,-98.19 6.66,-194.82 19.32,-289.55 -184.85,-23.29 -372.01,-35.02 -560.98,-35.02 -582.56,0 -1147.88,111.2 -1681.06,330.47 -10.64,99.33 -16.15,199.64 -16.15,300.83 m 4825.19,664.09 C 8969.93,7747.04 8496.8,7428.09 7970.1,7205.36 c -232.85,-98.46 -471.94,-176.12 -716.01,-232.87 -8.4,69.17 -12.69,139.29 -12.69,210.06 0,458.14 178.44,888.94 502.45,1213.06 324.01,324.12 754.73,502.62 1212.81,502.62 307.29,0 602.31,-80.45 861.05,-231.2 -133.07,-181.14 -280.32,-352.66 -441.37,-513.66 m 735.86,-664.09 c 0,-375.48 -73.4,-739.47 -218.3,-1081.89 -140.02,-330.96 -340.52,-628.3 -596.1,-883.75 -9.21,-9.29 -18.69,-18.35 -28.07,-27.48 -102.29,-18.74 -206.92,-28.45 -313.07,-28.45 -458.18,0 -888.93,178.39 -1212.91,502.3 -164.5,164.48 -291.38,356.52 -376.52,565.65 1060.21,248.95 1986.99,843.88 2654.77,1659.17 59.9,-228.72 90.2,-464.76 90.2,-705.55 M 7412.33,4240.95 c 23.92,0.59 47.77,1.46 71.54,2.56 2.81,0.13 5.64,0.24 8.45,0.37 23.14,1.13 46.22,2.53 69.23,4.14 3.35,0.23 6.71,0.46 10.06,0.7 22.68,1.66 45.31,3.56 67.86,5.67 3.54,0.33 7.07,0.67 10.6,1.01 22.5,2.19 44.95,4.6 67.32,7.25 3.4,0.4 6.79,0.81 10.17,1.23 22.55,2.73 45.04,5.69 67.46,8.88 2.98,0.43 5.94,0.88 8.91,1.31 22.88,3.33 45.7,6.86 68.42,10.67 2.13,0.36 4.27,0.74 6.42,1.1 23.56,4 47.05,8.21 70.45,12.7 0.77,0.16 1.55,0.32 2.33,0.46 24.31,4.71 48.54,9.66 72.65,14.89 0.18,0.04 0.35,0.07 0.52,0.11 23.73,5.16 47.35,10.6 70.87,16.27 1.52,0.36 3.04,0.71 4.55,1.07 22.71,5.51 45.32,11.28 67.83,17.25 2.24,0.6 4.48,1.19 6.71,1.78 22.09,5.92 44.07,12.07 65.97,18.44 2.54,0.74 5.08,1.47 7.62,2.22 21.74,6.37 43.39,12.98 64.94,19.79 2.52,0.81 5.06,1.61 7.58,2.41 21.64,6.91 43.18,14.03 64.62,21.38 2.24,0.76 4.47,1.54 6.71,2.3 21.77,7.52 43.46,15.25 65.03,23.21 1.61,0.58 3.2,1.19 4.8,1.78 22.23,8.25 44.35,16.71 66.34,25.42 0.56,0.22 1.11,0.44 1.67,0.66 68.68,27.26 136.23,56.79 202.53,88.5 0.56,0.27 1.11,0.53 1.67,0.8 21.47,10.28 42.8,20.82 64.01,31.56 1.12,0.56 2.23,1.12 3.34,1.68 20.89,10.61 41.65,21.45 62.28,32.5 1.3,0.69 2.61,1.39 3.91,2.09 20.58,11.05 41.01,22.32 61.33,33.8 1.18,0.68 2.37,1.36 3.56,2.02 20.49,11.63 40.86,23.46 61.07,35.5 0.8,0.48 1.59,0.96 2.39,1.44 20.65,12.33 41.12,24.87 61.52,37.64 0.09,0.06 0.18,0.12 0.27,0.17 103.91,65.27 203.85,136.24 299.45,212.49 0.28,0.27 0.64,0.54 1,0.81 18.77,14.98 37.28,30.16 55.7,45.54 0.54,0.41 0.99,0.82 1.53,1.23 18.33,15.37 36.57,30.93 54.62,46.7 0.36,0.35 0.72,0.69 1.17,1.03 18.24,15.95 36.21,32.07 54.08,48.41 296.83,271.64 543.01,597.66 722.81,962.29 6.5,13.09 12.9,26.24 19.2,39.44 0.4,1.04 1,2.09 1.4,3.12 5.9,12.35 11.7,24.74 17.4,37.17 0.6,1.25 1.2,2.52 1.8,3.77 5.8,12.74 11.5,25.53 17.2,38.36 0.3,0.62 0.6,1.26 0.9,1.9 24.2,54.76 46.9,110.33 68.1,166.63 0.4,1.21 0.9,2.42 1.3,3.63 4.7,12.5 9.3,25.01 13.8,37.57 0.9,2.08 1.6,4.17 2.3,6.24 4.3,11.94 8.5,23.91 12.6,35.92 0.8,2.16 1.6,4.32 2.3,6.48 4.2,12.45 8.5,24.9 12.5,37.41 0.6,1.52 1.1,3.05 1.6,4.58 14.1,42.8 27.2,85.98 39.5,129.53 0.4,1.28 0.6,2.57 1,3.86 3.6,12.75 7.1,25.53 10.6,38.35 0.8,2.94 1.5,5.88 2.3,8.82 3,11.28 5.9,22.58 8.8,33.9 0.9,3.52 1.7,7.04 2.6,10.57 2.7,10.95 5.4,21.93 8,32.93 0.8,3.56 1.7,7.1 2.6,10.66 2.7,11.5 5.3,23.02 7.8,34.55 0.7,2.92 1.4,5.83 2,8.75 3.2,14.23 6.2,28.5 9.1,42.81 0,0.11 0.1,0.23 0.1,0.33 3.1,15.11 6.1,30.26 9,45.46 0.1,0.38 0.1,0.78 0.2,1.18 2.7,13.97 5.2,27.98 7.7,42.01 0.7,3.71 1.2,7.43 2,11.14 1.8,10.77 3.7,21.57 5.4,32.39 0.7,4.67 1.5,9.36 2.2,14.04 1.6,9.98 3.1,19.97 4.6,29.98 0.8,4.99 1.5,9.97 2.2,14.97 1.5,9.9 2.8,19.82 4.2,29.75 0.6,4.92 1.3,9.83 2,14.75 1.3,10.52 2.6,21.05 3.8,31.6 0.6,4.26 1.1,8.51 1.6,12.77 1.6,13.63 3,27.29 4.5,40.98 0.1,1.12 0.3,2.24 0.3,3.36 1.6,14.97 3,29.99 4.3,45.02 0.4,3.73 0.6,7.45 0.9,11.18 1,11.08 1.9,22.17 2.7,33.29 0.4,5.33 0.7,10.68 1.1,16.01 0.7,9.61 1.3,19.21 1.9,28.84 0.3,5.8 0.7,11.62 1,17.44 0.5,9.24 1,18.5 1.4,27.76 0.3,5.96 0.6,11.91 0.8,17.87 0.4,9.36 0.8,18.73 1,28.11 0.2,5.74 0.4,11.48 0.6,17.23 0.2,10.18 0.4,20.37 0.7,30.57 0.1,4.93 0.2,9.86 0.3,14.79 0.1,15.09 0.2,30.19 0.2,45.33 0,21.47 -0.2,42.87 -0.6,64.23 -0.1,3.28 -0.2,6.54 -0.2,9.82 -0.5,21.19 -1.2,42.34 -2.1,63.43 -0.1,2.08 -0.1,4.16 -0.2,6.24 -2,45.24 -4.9,90.25 -8.7,135 l 0,0 c -42.6,501.84 -199.3,971.25 -444.1,1382.17 -8.5,14.25 -17,28.41 -25.8,42.51 -0.5,0.92 -1.1,1.84 -1.6,2.76 -26.7,43.19 -54.4,85.7 -83,127.51 -0.7,1 -1.3,2 -2.1,2.99 -28.57,41.69 -58.09,82.68 -88.61,122.93 -0.72,1.05 -1.53,2.09 -2.34,3.14 -30.43,40.12 -61.75,79.52 -93.98,118.15 -0.91,1.12 -1.9,2.23 -2.8,3.35 -32.23,38.47 -65.27,76.19 -99.13,113.12 -1.08,1.2 -2.25,2.41 -3.34,3.6 -33.85,36.76 -68.52,72.73 -103.9,107.9 -1.36,1.27 -2.62,2.54 -3.89,3.81 -11.28,11.16 -22.66,22.24 -34.12,33.22 -0.36,0.37 -0.72,0.73 -1.08,1.08 -24.11,23.11 -48.66,45.85 -73.4,68.22 -1.53,1.32 -2.98,2.64 -4.42,3.97 -11.38,10.23 -22.93,20.39 -34.4,30.48 -0.9,0.75 -1.8,1.51 -2.61,2.26 -25.01,21.78 -50.38,43.19 -76.02,64.23 -1.71,1.4 -3.34,2.7 -5.05,4.1 -11.47,9.4 -23.02,18.7 -34.67,27.9 -1.35,1.1 -2.71,2.1 -3.98,3.2 -25.9,20.4 -51.99,40.5 -78.44,60.1 -1.99,1.4 -3.89,2.8 -5.78,4.3 -11.56,8.5 -23.2,17 -34.94,25.4 -1.8,1.3 -3.52,2.6 -5.32,3.9 -26.64,19 -53.54,37.7 -80.8,56 -2.17,1.4 -4.25,2.8 -6.41,4.3 -11.65,7.7 -23.38,15.4 -35.12,23.1 -2.26,1.4 -4.42,2.9 -6.68,4.3 -27.35,17.7 -55.07,35 -82.97,51.9 -2.34,1.4 -4.71,2.8 -7.05,4.2 -11.75,7 -23.52,14 -35.34,20.9 -2.68,1.6 -5.35,3.1 -8.03,4.7 -28.08,16.3 -56.41,32.1 -85.01,47.6 -2.51,1.4 -5.05,2.7 -7.55,4 -11.84,6.4 -23.71,12.7 -35.64,18.9 -3.09,1.6 -6.19,3.2 -9.29,4.8 -14.07,7.3 -28.17,14.5 -42.36,21.5 -0.07,0.1 -0.14,0.1 -0.2,0.2 -14.72,7.3 -29.49,14.5 -44.34,21.6 -2.71,1.3 -5.44,2.6 -8.17,3.9 -11.91,5.7 -23.86,11.2 -35.86,16.8 -3.49,1.6 -6.97,3.2 -10.47,4.8 -13.43,6.1 -26.91,12.2 -40.44,18.1 -1.1,0.5 -2.19,1 -3.28,1.5 -14.96,6.6 -29.97,13 -45.04,19.4 -2.8,1.1 -5.61,2.3 -8.42,3.5 -12.11,5 -24.25,10 -36.44,14.9 -3.8,1.5 -7.62,3.1 -11.43,4.6 -12.99,5.2 -26,10.3 -39.06,15.3 -1.93,0.7 -3.86,1.5 -5.8,2.2 -15.16,5.8 -30.39,11.5 -45.65,17.1 -2.92,1 -5.86,2.1 -8.77,3.1 -12.29,4.4 -24.6,8.8 -36.94,13.1 -4.1,1.4 -8.2,2.8 -12.31,4.3 -12.64,4.3 -25.3,8.6 -38.01,12.7 -2.66,0.9 -5.3,1.8 -7.96,2.7 -15.37,5 -30.8,9.9 -46.26,14.7 -2.97,0.9 -5.93,1.8 -8.9,2.7 -12.48,3.8 -24.99,7.6 -37.55,11.2 -4.39,1.3 -8.79,2.6 -13.19,3.9 -12.35,3.6 -24.73,7 -37.12,10.5 -3.3,0.9 -6.58,1.8 -9.88,2.7 -15.58,4.2 -31.21,8.4 -46.88,12.4 -2.85,0.7 -5.72,1.4 -8.57,2.1 -12.83,3.3 -25.7,6.5 -38.59,9.6 -4.61,1.1 -9.24,2.2 -13.86,3.3 -12.18,2.8 -24.41,5.6 -36.65,8.4 -3.77,0.8 -7.54,1.7 -11.32,2.5 -15.79,3.5 -31.62,6.8 -47.51,10.1 -2.68,0.5 -5.4,1 -8.09,1.6 -13.24,2.6 -26.5,5.2 -39.79,7.7 -4.79,0.9 -9.6,1.8 -14.41,2.7 -12.07,2.2 -24.17,4.3 -36.29,6.4 -4.21,0.8 -8.41,1.5 -12.63,2.2 -15.99,2.7 -32.01,5.3 -48.06,7.7 -2.46,0.4 -4.91,0.7 -7.37,1.1 -13.71,2.1 -27.45,4 -41.22,5.9 -4.93,0.7 -9.86,1.3 -14.8,2 -12.06,1.6 -24.14,3.1 -36.24,4.6 -4.53,0.5 -9.05,1.1 -13.6,1.6 -16.22,1.9 -32.46,3.7 -48.75,5.3 -1.92,0.2 -3.84,0.4 -5.76,0.6 -14.46,1.4 -28.94,2.7 -43.44,4 -5,0.4 -9.98,0.8 -14.99,1.2 -12.12,1 -24.25,1.9 -36.41,2.8 -4.78,0.3 -9.55,0.7 -14.35,1 -16.43,1.1 -32.91,2 -49.41,2.9 -1.15,0 -2.3,0.1 -3.44,0.1 -15.41,0.8 -30.85,1.4 -46.31,2 -5.04,0.2 -10.09,0.3 -15.13,0.5 -12.2,0.3 -24.42,0.6 -36.66,0.9 -4.97,0.1 -9.94,0.2 -14.92,0.3 -16.68,0.2 -33.38,0.4 -50.11,0.4 -476.77,0 -929.57,-102.7 -1337.48,-287.3 -24,-10.8 -47.84,-22 -71.52,-33.4 -11.84,-5.7 -23.64,-11.5 -35.4,-17.3 -23.52,-11.7 -46.88,-23.7 -70.07,-35.9 -23.19,-12.3 -46.21,-24.8 -69.07,-37.6 -91.43,-51.1 -180.13,-106.5 -265.83,-166 -10.72,-7.4 -21.38,-14.9 -31.99,-22.4 -21.25,-15.1 -42.29,-30.5 -63.15,-46.1 -10.43,-7.8 -20.81,-15.7 -31.14,-23.6 -774.76,-594.24 -1274.32,-1529.51 -1274.32,-2581.02 0,-22.1 0.29,-44.13 0.72,-66.14 3.66,-183.2 22.47,-362.69 55.26,-537.26 l 0.01,0 c 4.37,-23.28 9,-46.47 13.87,-69.57 l 0.32,-1.57 c 19.62,-92.9 43.21,-184.33 70.58,-274.11 0.12,-0.44 0.26,-0.86 0.39,-1.29 6.82,-22.35 13.86,-44.58 21.16,-66.72 0.01,-0.05 0.03,-0.11 0.05,-0.17 22.02,-66.87 46.15,-132.78 72.31,-197.65 0.11,-0.26 0.22,-0.53 0.33,-0.81 8.62,-21.36 17.47,-42.61 26.53,-63.76 0.2,-0.44 0.39,-0.89 0.58,-1.34 27.5,-64.08 57.02,-127.1 88.45,-188.99 0.01,-0.02 0.01,-0.04 0.02,-0.04 10.35,-20.39 20.92,-40.64 31.69,-60.76 0.35,-0.65 0.7,-1.31 1.04,-1.96 43.41,-81.01 90.14,-159.95 140.03,-236.66 0.52,-0.8 1.03,-1.6 1.56,-2.39 12.2,-18.74 24.59,-37.33 37.16,-55.79 0.42,-0.62 0.84,-1.23 1.26,-1.85 38.44,-56.33 78.59,-111.39 120.41,-165.11 0.63,-0.8 1.26,-1.62 1.88,-2.42 13.55,-17.36 27.26,-34.57 41.14,-51.64 0.83,-1.02 1.66,-2.04 2.49,-3.05 14.07,-17.28 28.31,-34.42 42.73,-51.39 0.05,-0.07 0.11,-0.13 0.17,-0.2 29.37,-34.58 59.48,-68.53 90.26,-101.84 0.66,-0.69 1.29,-1.4 1.94,-2.09 14.79,-15.98 29.74,-31.8 44.85,-47.47 1.23,-1.28 2.44,-2.54 3.67,-3.81 15.08,-15.59 30.3,-31.05 45.68,-46.34 0.82,-0.82 1.65,-1.63 2.48,-2.45 31.84,-31.58 64.32,-62.51 97.42,-92.76 0.48,-0.44 0.95,-0.88 1.43,-1.31 16.02,-14.63 32.21,-29.06 48.52,-43.37 1.53,-1.34 3.05,-2.67 4.58,-4 16.03,-14 32.19,-27.85 48.5,-41.55 1.49,-1.24 2.98,-2.49 4.48,-3.74 16.72,-13.99 33.58,-27.84 50.59,-41.5 0.21,-0.17 0.42,-0.33 0.64,-0.5 17.74,-14.25 35.65,-28.31 53.7,-42.2 0.08,-0.05 0.16,-0.12 0.25,-0.17 17.24,-13.26 34.64,-26.31 52.16,-39.22 1.71,-1.28 3.43,-2.55 5.14,-3.81 16.96,-12.44 34.04,-24.72 51.24,-36.85 2.03,-1.43 4.08,-2.86 6.13,-4.3 17.37,-12.19 34.86,-24.22 52.47,-36.07 1.27,-0.85 2.55,-1.69 3.81,-2.54 36.42,-24.42 73.36,-48.12 110.8,-71.09 1.76,-1.07 3.5,-2.15 5.25,-3.23 17.86,-10.9 35.84,-21.63 53.92,-32.19 2.49,-1.45 4.97,-2.91 7.46,-4.35 18.01,-10.46 36.12,-20.77 54.35,-30.89 2.1,-1.18 4.22,-2.33 6.33,-3.5 18.95,-10.46 37.99,-20.79 57.16,-30.89 0.13,-0.06 0.26,-0.14 0.4,-0.21 19.38,-10.2 38.89,-20.19 58.5,-30.01 1.57,-0.78 3.11,-1.58 4.67,-2.36 18.81,-9.38 37.73,-18.55 56.73,-27.58 2.75,-1.29 5.48,-2.6 8.23,-3.89 18.66,-8.81 37.44,-17.43 56.3,-25.88 2.77,-1.24 5.55,-2.47 8.32,-3.71 19.28,-8.57 38.64,-16.99 58.11,-25.2 1.48,-0.63 2.96,-1.23 4.44,-1.84 19.74,-8.29 39.56,-16.39 59.49,-24.3 1.06,-0.41 2.11,-0.84 3.16,-1.26 19.79,-7.82 39.69,-15.41 59.66,-22.85 2.85,-1.06 5.7,-2.13 8.54,-3.19 19.35,-7.15 38.8,-14.11 58.33,-20.9 3.23,-1.11 6.46,-2.23 9.69,-3.34 19.69,-6.78 39.45,-13.39 59.3,-19.79 2.45,-0.79 4.91,-1.56 7.36,-2.34 41.54,-13.29 83.44,-25.76 125.69,-37.41 2.72,-0.74 5.42,-1.51 8.14,-2.25 20.08,-5.48 40.24,-10.75 60.47,-15.84 3.54,-0.9 7.05,-1.78 10.59,-2.66 20.13,-5 40.32,-9.83 60.6,-14.45 3.16,-0.72 6.33,-1.42 9.5,-2.13 21.01,-4.73 42.08,-9.3 63.26,-13.61 1.12,-0.24 2.26,-0.46 3.39,-0.68 20.99,-4.26 42.06,-8.29 63.18,-12.14 2.32,-0.43 4.63,-0.87 6.95,-1.29 20.87,-3.76 41.82,-7.27 62.82,-10.63 3.61,-0.58 7.23,-1.17 10.85,-1.73 20.64,-3.23 41.34,-6.26 62.11,-9.1 3.61,-0.48 7.24,-0.96 10.86,-1.44 21.21,-2.83 42.47,-5.48 63.8,-7.9 2.29,-0.25 4.59,-0.49 6.89,-0.74 21.41,-2.37 42.88,-4.55 64.41,-6.51 1.5,-0.13 2.99,-0.3 4.5,-0.42 21.76,-1.95 43.6,-3.63 65.47,-5.15 3.48,-0.24 6.96,-0.5 10.43,-0.73 21.2,-1.4 42.46,-2.58 63.77,-3.58 3.89,-0.18 7.78,-0.35 11.67,-0.51 21.48,-0.92 43,-1.67 64.58,-2.17 3.05,-0.08 6.11,-0.11 9.16,-0.18 22.72,-0.47 45.48,-0.76 68.3,-0.76 25.14,0 50.21,0.33 75.21,0.9 1.82,0.04 3.64,0.05 5.44,0.1" /></g></g></g></g></svg>
