<?xml version="1.0" encoding="utf-8"?>
<!-- Generator: Adobe Illustrator 18.1.1, SVG Export Plug-In . SVG Version: 6.00 Build 0)  -->
<svg version="1.1" id="Ebene_1" xmlns="http://www.w3.org/2000/svg" xmlns:xlink="http://www.w3.org/1999/xlink" x="0px" y="0px"
	viewBox="0 20 171 34.9" xml:space="preserve">
<g>
		<g>
			<path fill="#B8C4E3" d="M43.1,35.4c-1.4,0.1-2.9,0.8-4.7,2C36,39.1,34,40,31.7,39.8c-0.8-0.1-1.6-0.5-1.6-0.5l0.4,0.6
				c1.6,2.1,4.2,3.5,7.1,3.5c3.6,0,6.7-2.1,8.2-5.2C46.6,36.2,44.5,35.2,43.1,35.4z"/>
			<path fill="black" d="M37.7,25.5c-4.4,0-8.1,3.2-8.8,7.3c0,0.2,0,0.3,0,0.5c0,2,1.6,3.7,3.7,3.7c0.4,0,0.7-0.1,1.1-0.2
				c0.1,0,0.2-0.1,0.3-0.1c1.1-0.4,2.1-1,3-1.6c3.1-2.1,5.9-2.9,8.3-2.4c0.5,0.1,1,0.3,1.4,0.5C46,28.8,42.2,25.5,37.7,25.5z"/>
		</g>
		<g>
			<path fill="black" d="M59.7,35.6h-1.5v5.1c0,0.3-0.2,0.5-0.5,0.5h-0.9c-0.3,0-0.5-0.2-0.5-0.5V28.1c0-0.3,0.2-0.5,0.5-0.5
				c0.7-0.1,1.6-0.1,3-0.1c4,0,5.1,2.3,5.1,4.1c0,1.6-1.3,3-2.7,3.5l0,0c1.1,0.6,2.1,2.3,2.9,3.8c0,0,0.8,1.6,0.9,1.7
				c0,0.1,0.1,0.2,0.1,0.2c0,0.3-0.2,0.5-0.5,0.5h-1.1c-0.1,0-0.4-0.1-0.4-0.3c0,0-0.5-1-1-2C62.1,37.2,60.9,35.6,59.7,35.6z
				 M60,29.1c-0.6,0-1.3,0-1.7,0.1V34h1.6c1.9,0,3-1,3-2.5C62.8,30.5,62.2,29.1,60,29.1z"/>
			<path fill="black" d="M75.6,40.7c0,0.3-0.2,0.5-0.5,0.5h-0.8c-0.3,0-0.5-0.2-0.5-0.5V35c0-1.2-0.5-2-2-2
				c-0.9,0-1.7,0.5-2.2,1.1v6.6c0,0.3-0.2,0.5-0.5,0.5h-0.8c-0.3,0-0.5-0.2-0.5-0.5V28.2c0-0.3,0.2-0.5,0.5-0.5h0.8
				c0.3,0,0.5,0.2,0.5,0.5v4.5c0.9-0.9,2-1.1,2.6-1.1c2.2,0,3.4,1.2,3.4,3.2V40.7z"/>
			<path fill="black" d="M89.4,30.3c-0.7,0-1.1-0.4-1.1-1c0-0.6,0.4-1,1.1-1c0.6,0,1.1,0.4,1.1,1C90.5,29.9,90.1,30.3,89.4,30.3z
				 M89,41.2c-0.3,0-0.5-0.2-0.5-0.5v-8.5c0-0.3,0.2-0.5,0.5-0.5h0.8c0.3,0,0.5,0.2,0.5,0.5v8.5c0,0.3-0.2,0.5-0.5,0.5H89z"/>
			<path fill="black" d="M101,34.8v5.9c0,0.3-0.2,0.5-0.5,0.5h-0.8c-0.3,0-0.5-0.2-0.5-0.5V35c0-1.2-0.5-2-2-2
				c-1,0-1.7,0.6-2.2,1.1v6.6c0,0.3-0.2,0.5-0.5,0.5h-0.8c-0.3,0-0.5-0.2-0.5-0.5v-8.5c0-0.3,0.2-0.5,0.5-0.5h0.7
				c0.2,0,0.5,0.2,0.5,0.4l0.1,0.5h0c0.7-0.7,1.8-1.1,2.7-1.1C99.8,31.6,101,32.8,101,34.8z"/>
			<path fill="black" d="M112,41.2c-0.2,0-0.4-0.2-0.5-0.3c0,0-1.8-5.8-2.1-6.9h0c-0.3,1.1-2.1,6.9-2.1,6.9
				c-0.1,0.2-0.3,0.3-0.5,0.3h-1.1c-0.2,0-0.4-0.2-0.5-0.4l-2.3-8.5c0-0.1,0-0.1,0-0.2c0-0.3,0.2-0.5,0.5-0.5h0.8
				c0.2,0,0.4,0.2,0.5,0.4l1.6,6.9h0c0.7-2.4,1.5-4.6,2.2-7c0.1-0.2,0.3-0.4,0.5-0.4h0.8c0.2,0,0.4,0.2,0.5,0.4l2.2,7l0,0
				c0.9-4.1,1.3-5.5,1.6-6.9c0-0.2,0.3-0.4,0.5-0.4h0.8c0.3,0,0.5,0.2,0.5,0.5c0,0.1,0,0.1,0,0.2c-1.6,5.8-1.9,7.1-2.3,8.5
				c-0.1,0.2-0.3,0.4-0.5,0.4H112z"/>
			<g>
				<path fill="black" d="M142.2,40.8c0,0.3-0.2,0.5-0.5,0.5h-1c-0.1,0-0.3-0.1-0.4-0.2c0,0-2.9-3.8-3.6-5h0v4.7
					c0,0.3-0.2,0.5-0.5,0.5h-0.8c-0.3,0-0.5-0.2-0.5-0.5V28.2c0-0.3,0.2-0.5,0.5-0.5h0.8c0.3,0,0.5,0.2,0.5,0.5v7l0,0
					c0.6-0.8,2.4-2.4,3.2-3.1c0.2-0.2,0.3-0.2,0.5-0.2h0.8c0.3,0,0.5,0.2,0.5,0.5c0,0.1-0.1,0.3-0.2,0.4l-3.3,3l3.9,4.8
					C142.2,40.5,142.2,40.6,142.2,40.8z"/>
				<path fill="black" d="M133.1,32.8c-0.1,0.2-0.2,0.3-0.4,0.2c-0.2,0-0.4-0.1-0.6,0c-0.9,0-1.6,0.6-2,1.2v6.5
					c0,0.3-0.2,0.5-0.5,0.5h-0.8c-0.3,0-0.5-0.2-0.5-0.5v-8.4c0-0.3,0.2-0.5,0.5-0.5h0.7c0.3,0,0.5,0.2,0.5,0.5v0.4
					c0.9-0.9,2-1.1,2.6-1.1c0.2,0,0.3,0,0.4,0c0.3,0,0.4,0.3,0.3,0.5L133.1,32.8z"/>
			</g>
			<path fill="black" d="M85.3,39.4c0.2,0,0.4,0.1,0.5,0.3l0.1,0.4c0,0,0,0.1,0,0.1c0,0.2-0.1,0.4-0.3,0.5c-0.8,0.3-2,0.6-3.2,0.6
				c-2.6,0-4.6-1.7-4.6-4.9s2-4.9,4.6-4.9c2.5,0,3.9,1.6,3.9,4.1v0.7c0,0.3-0.2,0.5-0.5,0.5h-6.2C79.7,39,81,40,82.4,40
				c1,0,1.8-0.2,2.7-0.6C85.2,39.4,85.2,39.4,85.3,39.4z M84.6,35.4c0-1.5-1-2.4-2.3-2.4c-1.4,0-2.4,0.9-2.6,2.8h4.9L84.6,35.4z"/>
			<path fill="black" d="M124.9,39.4c0.2,0,0.4,0.1,0.5,0.3l0.1,0.4c0,0,0,0.1,0,0.1c0,0.2-0.1,0.4-0.3,0.5
				c-0.8,0.3-2,0.6-3.2,0.6c-2.6,0-4.6-1.7-4.6-4.9s2-4.9,4.6-4.9c2.5,0,3.9,1.6,3.9,4.1v0.7c0,0.3-0.2,0.5-0.5,0.5h-6.2
				c0.1,2.1,1.4,3.1,2.8,3.1c1,0,1.8-0.2,2.7-0.6C124.8,39.4,124.9,39.4,124.9,39.4z M124.2,35.4c0-1.5-1-2.4-2.3-2.4
				c-1.4,0-2.4,0.9-2.6,2.8h4.9L124.2,35.4z"/>
		</g>
	</g>
</svg>
