<?xml version="1.0" encoding="utf-8"?>
<!-- Generator: Adobe Illustrator 16.0.0, SVG Export Plug-In . SVG Version: 6.00 Build 0)  -->
<!DOCTYPE svg PUBLIC "-//W3C//DTD SVG 1.1//EN" "http://www.w3.org/Graphics/SVG/1.1/DTD/svg11.dtd">
<svg version="1.1" id="Ebene_1" xmlns="http://www.w3.org/2000/svg" xmlns:xlink="http://www.w3.org/1999/xlink" x="0px" y="0px"
	 width="637.807px" height="70.864px" viewBox="0 0 637.807 70.864" enable-background="new 0 0 637.807 70.864"
	 xml:space="preserve">
<path fill="white" d="M269.292,70.864h14.173V56.691h-14.173V70.864z M311.963,70.864h42.521V56.691h-42.521V70.864z M0,14.173
	V42.52h42.52v14.172H0v14.173h56.694V28.345H14.173V14.173H0z M127.563,14.173v42.519H85.04v14.173h56.697V14.173H127.563z
	 M453.555,70.864h14.173V14.173h-14.173V70.864z M14.173,14.173h42.521V0H14.173V14.173z M70.867,56.691H85.04V0H70.867V56.691z
	 M155.911,0v70.864h14.173V14.173h28.346v56.691h14.173V14.173h28.342v56.691h14.174V0H155.911z M297.789,0v56.691h14.174V14.173
	h42.52V0H297.789z M425.209,0v56.691h-42.515l-0.01-42.519h-14.174l0.01,56.691h70.861V0H425.209z M467.728,0v14.173h28.349v42.519
	h14.173V14.173h28.342v56.691h14.173V0H467.728z M566.946,0v70.864h70.861V14.173h-14.175v42.519h-42.514h-0.009l0.009-42.519
	h42.512V0H566.946z"/>
</svg>
