<svg xmlns="http://www.w3.org/2000/svg" width="685.5" height="109.6" viewBox="-592.6 346 685.5 109.6"><title>Logo of Accenture</title><path d="M-529 361h-22.9v73.4h-17.7V361h-22.9v-15h63.6v15zm23.5 16.3c5.3-4.4 11.9-8 19-8 6.9 0 16.7 4.2 16.7 19.9v45.1h-16.8V396c0-5.1.3-13.2-6.9-13.2-4.9 0-8.7 3.5-11.9 6.9v44.5h-16.8V346h16.8v31.3zm42.6 25.3c0-16.9 9.3-33.2 27.9-33.2 18.6 0 27.9 16.2 27.9 33.2 0 16.8-9.4 33.2-27.9 33.2-18.5-.1-27.9-16.4-27.9-33.2zm38.6 0c0-8-1.6-20.8-10.7-20.8s-10.7 12.8-10.7 20.8 1.6 20.8 10.7 20.8c9.1-.1 10.7-12.9 10.7-20.8zm60.3 25.2c-5.3 4.4-11.9 7.9-19 7.9-6.9 0-16.7-4.2-16.7-19.9v-45.1h16.8V409c0 5.1-.3 13.2 6.9 13.2 4.9 0 8.7-3.5 11.9-6.9v-44.5h16.8v63.6H-364v-6.6zm44.3-14.3c-1.9 0-4.8 1-4.8 4 0 8.3 44.1-6.1 44.1 18.7 0 9.4-6.4 19.4-31.6 19.4-21.9 0-29.4-7.7-29.4-16 0-4.9 3.1-7.4 6.9-9.7-2.7-2-5-4.4-5-8.1 0-6.3 3.4-9.5 8.3-12.7-4.7-4.5-7.9-10.2-7.9-17.5 0-14.1 11.9-22.3 25.7-22.3 5.6 0 10.9 1.6 15.7 4.4 3.4-3.2 6.5-5.2 11.5-5.2 1.6 0 3.3.1 4.9.5v11.8c-1.7-.7-3.5-1.4-5.3-1.4-1.8 0-2.9.6-4.5 1.4 1.8 3.4 3.3 7.2 3.4 10.8 0 14.1-11.8 22.3-25.6 22.3l-6.4-.4zm-5.3 21c-1.6 1-2.6 1.9-2.6 4 0 5.9 11.9 6.2 15.9 6.2 2.8 0 17.6-.3 17.6-5.5 0-3.3-2.3-3-12.3-3.5l-18.6-1.2zm11.6-31.7c7 0 9.1-5.8 9.1-11.8 0-5.8-2.7-10.7-9.1-10.7-7 0-9.2 5.9-9.2 11.9 0 5.8 2.7 10.6 9.2 10.6zm56.1-25.5c5.3-4.4 11.9-8 19-8 6.9 0 16.7 4.2 16.7 19.9v45.1h-16.8V396c0-5.1.3-13.2-6.9-13.2-4.9 0-8.7 3.5-11.9 6.9v44.5H-274V346h16.8v31.3zm66.2-6.5h13.1v14h-13.1v32.4c0 3.1.9 6.2 6.4 6.2 2.8 0 4.7-1.1 6.7-2.4v12.8c-3.5 1-7.2 1.9-10.8 1.9-10.4 0-19.1-5.9-19.1-19.8v-31.2h-7.8v-14h7.8v-15.9h16.8v16zm83 63.6h-9.1l-15-72.2h-.2l-15.8 72.2h-9.1l-18.5-88.4h8.9l14.5 71.3h.2l15.9-71.3h8.7l15.1 71.3h.2l15.6-71.3h8.7l-20.1 88.4zm16.3-31.4c0-23.5 11.1-33.2 25.1-33.2 14 0 25.1 9.7 25.1 33.2 0 23.5-11.1 33.2-25.1 33.2-13.9 0-25.1-9.7-25.1-33.2zm41.4 0c0-10.7-2.6-25.7-16.2-25.7s-16.2 15-16.2 25.7 2.6 25.7 16.2 25.7 16.2-15 16.2-25.7zm24.6-17.8h.2c3.5-7.5 8.1-14.4 17.4-14.4h3.4v8.1c-11.6-1.6-17.6 10.9-21 20v35.5h-8.9v-62.7h8.9v13.5zm37 15.5l23.3-29.1h9.9l-17.3 21.5L47 434.4h-9.5l-16-34.1-10.2 12.6v21.5H2.4V346h8.9v54.7zm74.2-15.1c-3.5-5.2-7.7-8.3-14.3-8.3-5.8 0-11.2 2.9-11.2 9.3 0 15.3 33.1 8.6 33.1 29.8 0 12.3-8.7 19.8-20.6 19.8-10.1 0-18.3-4.4-23.4-13.2l7-4.4c3.4 6.5 8.9 10.1 16.4 10.1 6.5 0 12.3-3.5 12.3-10.7 0-15.8-33-8.3-33-30.8 0-10.8 8.9-17.4 19.2-17.4 8.7 0 16 3.6 20.9 10.9l-6.4 4.9z" fill="#222"/></svg>