<svg version="1.1" width="300" height="300" xmlns="http://www.w3.org/2000/svg">
<rect x="0" y="0" width="300" height="300" fill="#707070" />
<g transform="scale(1.17188, 1.17188)">
<path d="M 271 83.0946 L -16 84.8424 L -5.87128 24.9316 L 254.376 -16 Z" fill="#ffffff" fill-opacity="0.501961" />
<path d="M 213.269 99.7953 L 0.355463 99.9123 L -6.77809 257.531 L 271 256.301 Z" fill="#1d1d1d" fill-opacity="0.501961" />
<path d="M 102.248 190.443 L -16 192.254 L -16 211.486 L 18.5154 214.831 Z" fill="#b7b7b7" fill-opacity="0.501961" />
<path d="M 12.482 216.733 L 114.044 225.092 L 129.67 184.893 L 105.721 213.214 Z" fill="#c3c3c3" fill-opacity="0.501961" />
<path d="M 252.094 240.196 L 271 115.947 L 138.43 233.45 L 264.127 271 Z" fill="#242424" fill-opacity="0.501961" />
<path d="M 129.304 41.5181 L 271 1.52161 L 217.872 118.714 L 271 120.779 Z" fill="#dfdfdf" fill-opacity="0.501961" />
<path d="M 182.565 243.317 L 130.389 271 L 149.192 244.045 L 195.75 271 Z" fill="#e6e6e6" fill-opacity="0.501961" />
<path d="M 159.022 15.7698 L 184.522 -16 L -16 7.71867 L 7.36367 51.1696 Z" fill="#949494" fill-opacity="0.501961" />
<path d="M 163.322 89.9512 L 163.302 166.319 L 216.392 117.397 L 199.88 76.4133 Z" fill="#292929" fill-opacity="0.501961" />
<path d="M 30.7922 237.743 L 86.851 271 L 20.8982 246.634 L 23.7151 223.769 Z" fill="#b0b0b0" fill-opacity="0.501961" />
<path d="M 240.713 117.084 L 202.285 139.309 L 163.161 170.059 L 173.863 181.261 Z" fill="#808080" fill-opacity="0.501961" />
<path d="M 118.204 231.844 L 107.172 251.26 L 132.792 227.799 L 127.685 217.788 Z" fill="#ababab" fill-opacity="0.501961" />
<path d="M 269.517 -7.64361 L 271 87.4525 L 233.928 93.3324 L 205.17 7.24581 Z" fill="#d4d4d4" fill-opacity="0.501961" />
<path d="M 50.8922 199.178 L 34.1548 194.433 L 141.701 110.391 L 88.0509 107.334 Z" fill="#252525" fill-opacity="0.501961" />
<path d="M 120.524 43.0113 L -14.1391 80.2133 L 143.709 80.4547 L 271 73.1192 Z" fill="#d9d9d9" fill-opacity="0.501961" />
<path d="M 178.093 163.693 L 257.771 181.697 L 246.577 166.83 L 207.434 167.73 Z" fill="#898989" fill-opacity="0.501961" />
<path d="M 155.272 74.107 L 166.117 100.6 L 120.966 126.673 L 149.379 152.223 Z" fill="#898989" fill-opacity="0.501961" />
<path d="M 186.25 147.966 L 192.67 141.831 L 257.78 163.931 L 204.164 166.68 Z" fill="#222222" fill-opacity="0.501961" />
<path d="M 217.093 104.224 L 220.209 134.379 L 261.279 126.086 L 256.257 105.837 Z" fill="#b4b4b4" fill-opacity="0.501961" />
<path d="M 219.111 142.391 L 218.753 89.0842 L 271 107.888 L 164.536 97.6433 Z" fill="#383838" fill-opacity="0.501961" />
<path d="M 47.1759 201.333 L 96.8755 205.712 L 96.7441 191.114 L 65.8364 185.247 Z" fill="#848484" fill-opacity="0.501961" />
<path d="M 152.536 91.3257 L 126.257 148.164 L 147.734 118.942 L 136.599 89.7784 Z" fill="#222222" fill-opacity="0.501961" />
<path d="M 168.632 262.553 L 159.475 152.69 L 80.4837 271 L 133.813 215.997 Z" fill="#2e2e2e" fill-opacity="0.501961" />
<path d="M 185.849 201.062 L 175.152 193.469 L 163.041 210.728 L 165.896 212.093 Z" fill="#939393" fill-opacity="0.501961" />
<path d="M 217.759 137.752 L 208.873 147.854 L 199.696 135.313 L 235.936 148.229 Z" fill="#c0c0c0" fill-opacity="0.501961" />
<path d="M -10.6588 187.516 L 46.4148 199.549 L 34.385 209.943 L -16 198.655 Z" fill="#b2b2b2" fill-opacity="0.501961" />
<path d="M 107.186 224.272 L 125.513 201.622 L 118.795 190.974 L 116.955 194.566 Z" fill="#cfcfcf" fill-opacity="0.501961" />
<path d="M 115.571 246.577 L 117.524 249.931 L 130.991 252.311 L 137.423 246.712 Z" fill="#bbbbbb" fill-opacity="0.501961" />
<path d="M 44.6112 202.742 L 108.185 206.941 L 107.624 217.935 L 39.3436 209.873 Z" fill="#2a2a2a" fill-opacity="0.501961" />
<path d="M -16 211.86 L 93.2166 213.715 L 109.707 234.738 L 91.7303 225.835 Z" fill="#858585" fill-opacity="0.501961" />
<path d="M 69.4956 128.235 L 85.0809 137.273 L 50.6626 144.934 L -16 110.335 Z" fill="#696969" fill-opacity="0.501961" />
<path d="M 121.326 163.234 L 104.576 147.042 L 13.1369 140.599 L 95.7268 182.264 Z" fill="#2b2b2b" fill-opacity="0.501961" />
<path d="M 135.031 86.8366 L 186.441 81.8292 L 50.3747 80.9652 L 132.218 108.194 Z" fill="#909090" fill-opacity="0.501961" />
<path d="M 221.077 117.125 L 185.318 154.761 L 118.167 146.229 L 247.023 120.149 Z" fill="#373737" fill-opacity="0.501961" />
<path d="M 52.6154 126.49 L -3.33725 106.173 L 117.844 111.613 L 91.7541 126.044 Z" fill="#272727" fill-opacity="0.501961" />
<path d="M 114.221 148.509 L 143.146 162.857 L 173.162 171.914 L 133.911 147.899 Z" fill="#7b7b7b" fill-opacity="0.501961" />
<path d="M 199.632 79.0939 L 271 81.2495 L 261.193 94.3171 L 201.7 93.1624 Z" fill="#989898" fill-opacity="0.501961" />
<path d="M 74.1335 236.029 L 77.3593 246.972 L 93.6182 244.278 L 71.3862 241.292 Z" fill="#c2c2c2" fill-opacity="0.501961" />
<path d="M 164.582 106.753 L 149.07 93.3051 L 162.888 92.3428 L 162.122 64.1996 Z" fill="#c5c5c5" fill-opacity="0.501961" />
<path d="M 26.6424 271 L 18.7335 231.571 L 69.7303 193.166 L -16 233.059 Z" fill="#282828" fill-opacity="0.501961" />
<path d="M 113.318 20.1171 L -4.65983 39.1977 L -9.26536 16.3425 L 179.358 -16 Z" fill="#949494" fill-opacity="0.501961" />
<path d="M 190.91 265.685 L 172.599 227.814 L 181.193 233.463 L 161.267 271 Z" fill="#a7a7a7" fill-opacity="0.501961" />
<path d="M 153.936 254.576 L 60.2149 243.565 L 1.25718 214.099 L 84.4338 266.43 Z" fill="#292929" fill-opacity="0.501961" />
<path d="M 251.211 170.28 L 271 214.161 L 251.309 129.253 L 241.465 123.019 Z" fill="#252525" fill-opacity="0.501961" />
<path d="M 143.16 106.982 L 8.75442 103.105 L 23.4682 118.832 L 24.5314 85.8885 Z" fill="#595959" fill-opacity="0.501961" />
<path d="M 47.6406 185.865 L -16 178.951 L 90.9547 173.427 L 112.062 185.71 Z" fill="#242424" fill-opacity="0.501961" />
<path d="M 150.831 225.558 L 166.083 271 L 138.706 248.795 L 150.042 245.858 Z" fill="#a3a3a3" fill-opacity="0.501961" />
<path d="M 72.5207 173.918 L 52.943 151.456 L 63.6708 162.155 L 59.6713 174.676 Z" fill="#8b8b8b" fill-opacity="0.501961" />
<path d="M 176.355 157.618 L 194.91 155.348 L 194.357 164.385 L 173.736 157.227 Z" fill="#b8b8b8" fill-opacity="0.501961" />
<path d="M 93.4162 225.016 L 112.752 240.885 L 65.3902 236.621 L 58.8076 223.454 Z" fill="#242424" fill-opacity="0.501961" />
<path d="M 189.169 78.0897 L 202.64 79.8934 L 142.308 119.365 L 216.618 112.351 Z" fill="#2e2e2e" fill-opacity="0.501961" />
</g>
</svg>
