<svg xmlns="http://www.w3.org/2000/svg" width="536" height="348" viewBox="0 0 536 348">
    <g fill="none" fill-rule="evenodd">
        <path fill="#FFF" d="M242.303 83.194L90.94 218.661v28.287l223.995 41.204 133.689-167.175z"/>
        <path fill="#911C80" d="M236.765 241.189c5.812.958 6.768 5.009 2.951 9.416-3.807 4.398-10.669 7.163-16.479 6.206-5.812-.957-6.768-5.011-2.96-9.407 3.815-4.407 10.676-7.171 16.488-6.215"/>
        <path fill="#911C80" d="M316.403 254.36l3.69-4.436-20.277-3.477-20.36 24.483 6.51 1.116 6.17-7.42 12.558 2.153 3.761-4.524-12.555-2.153 6.738-8.103 13.765 2.36zM133.06 235.786l12.982-15.61-6.499-1.114-12.7 15.27c-2.974 3.578-6.085 4.605-10.28 3.885-4.296-.736-5.137-2.441-2.16-6.02l12.697-15.267-6.51-1.118-12.983 15.611c-5.101 6.133-2.075 10.072 5.194 11.318 7.166 1.23 15.16-.82 20.26-6.955zm136.598 33.752l20.5-24.648-6.058-1.038-8.505 10.227c-1.42 1.706-3.158 4.371-3.25 4.513-.017-.131-.362-2.593-.976-3.966l-6.29-14.239-.668-.113-20.498 24.65 6.07 1.04 8.505-10.23c1.492-1.793 3.162-4.374 3.25-4.51.017.129.362 2.59.974 3.966l6.293 14.236.653.112zm-108.737-18.646l20.5-24.648-6.07-1.042-8.507 10.229c-1.42 1.706-3.158 4.372-3.249 4.511-.019-.129-.364-2.59-.976-3.966l-6.292-14.236-.655-.112-20.499 24.648 6.057 1.04 8.508-10.229c1.49-1.794 3.16-4.375 3.248-4.511.018.13.363 2.591.975 3.966l6.292 14.236.668.114zm23.275 4.092c6.06 1.039 12.17-.253 17.588-3.134l-2.8-3.589c-3.458 1.736-6.944 2.899-11.025 2.198-5.729-.981-6.672-5.143-2.917-9.657 3.762-4.524 10.453-7.277 16.185-6.294 3.639.624 5.034 2.424 4.979 4.465l7.232-1.88c-.033-3.905-2.832-6.146-8.449-7.109-9.03-1.549-20.599 2.518-26.56 9.684-6.024 7.244-3.263 13.767 5.767 15.316zm35.039 6.008c9.042 1.55 20.713-2.498 26.737-9.743 6.034-7.254 3.16-13.784-5.88-15.335-9.031-1.547-20.694 2.49-26.725 9.746-6.026 7.244-3.164 13.784 5.868 15.332zm-42.13-83.15l-33.488 7.115c-2.524 12.725 3.368 24.553 27.058 28.614 26.222 4.497 53.188-3.256 72.91-26.969l65.123-78.307-29.635-5.08-64.838 77.965c-9.513 11.437-18.165 13.362-27.863 11.699-10.138-1.74-9.964-7.848-9.268-15.037zm107.752 55.41c28.098 4.819 58.394-2.855 75.563-23.497 15.958-19.188 8.773-30.069-9.396-42.742l-5.328-3.732c-9.118-6.444-12.3-10.2-6.624-17.024 4.615-5.547 13.675-8.863 22.377-7.37 8.49 1.456 11.656 5.206 10.91 13.078l32.535-7.489c1.395-15.157-7.972-22.512-26.7-25.724-26.447-4.534-54.335 5.69-68.598 22.84-15.537 18.682-8.697 29.994 6.861 40.65l5.322 3.741c9.723 6.927 15.5 11.038 8.9 18.974-5.385 6.475-17.18 9.911-29.522 7.794-14.547-2.494-17.919-9.79-17.643-18.913l-33.127 6.697c-2.364 14.802 6.925 27.993 34.47 32.717zM202.892 0L518 54.033 315.108 298 0 243.967 202.892 0z"/>
        <path fill="#701663" d="M518.034 53.961L536 103.891 333.23 348 315 298.11z"/>
        <path fill="#4E0F45" d="M315.093 297.977l18.146 50.015-315.015-54.079-18.242-49.998z"/>
    </g>
</svg>
